<svg width="730" height="291" version="1.1" viewBox="0 0 730 291" xml:space="preserve" xmlns="http://www.w3.org/2000/svg"><defs><clipPath id="clipPath18"><path d="m24.901 101.18h545.48v217.17h-545.48z"/></clipPath></defs><g transform="matrix(1.3333,0,0,-1.3333,0,291)" fill="#fff"><g transform="matrix(1.0037,0,0,1.0037,-24.994,-101.56)" fill="#fff"><g clip-path="url(#clipPath18)" fill="#fff"><g transform="translate(164.11,314.97)" fill="#fff"><path d="m0 0c-2.664 1.683-5.292 2.537-7.808 2.537-1.894 0-4.867-0.512-7.561-3.166-0.028 0.013-0.055 0.027-0.08 0.041-1.234 0.616-2.679 0.632-3.925 0.043-1.245-0.589-2.15-1.717-2.455-3.06-0.548-2.41-0.718-4.699-0.496-6.93-1.637 0.31-3.338 0.468-5.082 0.468-2.479 0-4.486-2.008-4.486-4.484 0-0.523 0.051-1.035 0.148-1.535-0.439-0.392-0.846-0.777-1.225-1.166-1.351 1.259-3.095 2.1-5.025 2.313-0.326 0.035-0.654 0.054-0.978 0.054-2.318 0-4.429-0.9-6.004-2.367-0.38 0.389-0.785 0.774-1.226 1.165 0.099 0.501 0.148 1.013 0.148 1.536 0 2.476-2.007 4.484-4.484 4.484-1.534 0-3.033-0.122-4.487-0.363 0.241 1.454 0.364 2.953 0.364 4.486 0 2.478-2.009 4.485-4.484 4.485-0.523 0-1.036-0.052-1.536-0.148-1.761 1.977-3.387 3.272-5.87 4.515-1.264 0.632-2.751 0.632-4.011 0-2.488-1.241-4.114-2.538-5.875-4.515-0.5 0.098-1.013 0.148-1.536 0.148-2.476 0-4.484-2.007-4.484-4.485 0-1.533 0.123-3.033 0.364-4.486-1.453 0.241-2.953 0.363-4.486 0.363-2.478 0-4.485-2.008-4.485-4.484 0-0.523 0.05-1.035 0.148-1.535-0.44-0.392-0.846-0.777-1.226-1.166-1.35 1.259-3.094 2.1-5.026 2.313-0.324 0.035-0.654 0.054-0.977 0.054-2.317 0-4.428-0.9-6.002-2.368-0.381 0.39-0.786 0.775-1.228 1.167 0.098 0.5 0.149 1.012 0.149 1.535 0 2.476-2.008 4.484-4.484 4.484-1.746 0-3.446-0.158-5.084-0.468 0.223 2.231 0.053 4.518-0.494 6.929-0.305 1.344-1.211 2.472-2.456 3.061-1.244 0.589-2.692 0.573-3.923-0.043-0.028-0.014-0.055-0.028-0.082-0.041-2.695 2.654-5.668 3.166-7.56 3.166-2.518 0-5.144-0.854-7.81-2.537-1.459-0.922-2.259-2.595-2.061-4.307 0.197-1.713 1.36-3.159 2.989-3.723 2.393-0.829 3.081-1.844 3.532-10.197-2.162-2.032-2.908-5.527-1.706-8.994 0.688-1.989 1.928-3.616 3.463-4.64l2.888-6.354c-2.033-1.672-3.353-4.191-3.416-7.021 0-0.05-2e-3 -0.099-2e-3 -0.146v-0.114c0.062-5.084 4.224-9.205 9.318-9.205h107.11c5.099 0 9.264 4.129 9.318 9.248 1e-3 0.022 1e-3 0.046 1e-3 0.071s-1e-3 0.05-1e-3 0.077c-0.033 2.853-1.358 5.402-3.416 7.091l2.888 6.353c1.535 1.024 2.776 2.651 3.465 4.64 1.26 3.641 0.376 7.307-2.038 9.282 0.346 8.292 1.576 9.116 3.862 9.909 1.629 0.564 2.79 2.01 2.989 3.723 0.197 1.712-0.604 3.385-2.061 4.307m-9.358-21.071c0.417 0.123 0.841 0.117 1.236-0.044 1.324-0.543 1.829-2.62 1.132-4.64-0.527-1.517-1.582-2.569-2.636-2.769l-5.481-12.061h0.102c2.663 0 4.823-2.154 4.832-4.816v0.019-0.036 0.017c-9e-3 -2.661-2.169-4.815-4.834-4.815h-107.11c-2.663 0-4.823 2.154-4.832 4.815 0-5e-3 -2e-3 -0.01-2e-3 -0.017v0.036c0-6e-3 2e-3 -0.013 2e-3 -0.019 9e-3 2.662 2.169 4.816 4.832 4.816h0.104l-5.483 12.061c-1.054 0.2-2.11 1.252-2.636 2.769-0.698 2.02-0.192 4.097 1.131 4.64 0.308 0.125 0.632 0.158 0.96 0.107-0.446 10.714-0.833 15.19-6.686 17.216 5.11 3.228 9.683 2.421 12.372-4.035 0.807 1.615 1.076 2.42 2.691 3.228 1.342-5.917-0.27-10.49-4.037-15.331 4.037 4.035 9.416 5.379 13.988 5.379 0-0.807-0.27-1.883-1.346-2.69 3.496-2.689 4.842-4.035 6.187-6.724-1.345-2.689-2.691-4.035-6.187-6.724 1.076-0.807 1.346-1.883 1.346-2.689-4.572 0-9.951 1.345-13.988 5.378 1.885-4.572 8.07-8.875 10.76-8.875 2.273 0 8.394 3.462 12.67 9.409-1.316 0.742-2.203 2.152-2.203 3.771 0 2.549 2.206 4.584 4.815 4.297 2.005-0.219 3.625-1.865 3.816-3.874 0.17-1.793-0.755-3.387-2.182-4.194 4.274-5.947 10.395-9.409 12.67-9.409 2.689 0 9.415 3.497 10.759 8.875-4.035-4.033-9.414-5.378-13.986-5.378 0 0.806 0.268 1.882 1.344 2.689-3.496 2.689-4.841 4.035-6.187 6.724 1.346 2.689 2.691 4.035 6.187 6.724-1.076 0.807-1.344 1.883-1.344 2.69 4.572 0 9.951-1.344 13.986-5.379-4.035 4.035-5.38 9.414-5.38 13.986 0.806 0 1.884-0.268 2.689-1.346 2.691 3.498 4.035 4.843 6.726 6.187 2.687-1.344 4.033-2.689 6.722-6.187 0.807 1.078 1.885 1.346 2.691 1.346 0-4.572-1.345-9.951-5.38-13.986 4.035 4.035 9.414 5.379 13.987 5.379 0-0.807-0.269-1.883-1.345-2.69 3.497-2.689 4.841-4.035 6.185-6.724-1.344-2.689-2.688-4.035-6.185-6.724 1.076-0.807 1.345-1.883 1.345-2.689-4.573 0-9.952 1.345-13.987 5.378 1.345-5.378 8.068-8.875 10.759-8.875 2.275 0 8.396 3.462 12.67 9.409-1.314 0.742-2.202 2.152-2.202 3.771 0 2.549 2.205 4.584 4.814 4.297 2.006-0.219 3.624-1.865 3.815-3.874 0.173-1.793-0.753-3.387-2.181-4.194 4.276-5.947 10.395-9.409 12.672-9.409 2.688 0 8.873 4.303 10.757 8.875-4.034-4.033-9.415-5.378-13.985-5.378 0 0.806 0.267 1.882 1.344 2.689-3.496 2.689-4.842 4.035-6.187 6.724 1.345 2.689 2.691 4.035 6.187 6.724-1.077 0.807-1.344 1.883-1.344 2.69 4.57 0 9.951-1.344 13.985-5.379-3.765 4.841-5.38 9.414-4.034 15.331 1.613-0.808 1.882-1.613 2.689-3.228 2.691 6.456 7.263 7.263 12.372 4.035-5.865-2.031-6.811-6.521-6.963-17.279m-62.141-59.505s-0.383 1.305-0.559 2.425c-0.16 0.986-0.155 2.433-0.155 2.433s-0.398 0.479-1.311 0.874c-0.945 0.414-1.815 0.328-1.815 0.328s0.197-0.668 0.358-1.44c0.161-0.774 0.26-1.686 0.26-1.686s0.888-0.364 1.616-1.038c0.738-0.687 1.606-1.896 1.606-1.896m9.719 6.06s-0.87 0.086-1.816-0.328c-0.91-0.395-1.308-0.874-1.308-0.874s1e-3 -1.447-0.155-2.433c-0.181-1.12-0.56-2.425-0.56-2.425s0.866 1.209 1.603 1.896c0.728 0.674 1.618 1.038 1.618 1.038s0.097 0.912 0.259 1.686c0.162 0.772 0.359 1.44 0.359 1.44m33.627-74.605c0.985-1.17 1.767-1.363 2.299-1.363 0.901 0 1.76 1.136 2.006 1.459 0.245 0.325 0.828 1.492 1.58 1.604 0.707 0.107 1.044-0.636 1.044-0.636s0.131 0.414 0.149 0.62c0.058 0.59-0.265 0.876-0.585 1.004-1.013 0.4-2.366-0.774-2.601-0.958-1.372-1.078-2.543-0.491-3.424 0.131-1.638 1.164-1.657 3.348-1.657 3.348l-0.64-0.175s-0.086-1.035 0.136-1.924c0.386-1.537 1.389-2.747 1.693-3.11m-4.888 13.797c-0.339 1.342-1.029 3.258-1.499 4.233-1.381 2.855-3.414 3.668-4.293 4.043-1.9 0.807-3.675-0.263-4.413-1.372-1.566-2.353-0.569-4.856 0.013-5.696 0.737-1.062 2.711-3.226 3.167-3.783 1.391-1.693 1.036-2.64 0.713-3.021-0.808-0.957-2.127-0.145-2.127-0.145s0.235-0.782 1.075-1.125c1.388-0.567 2.161 0.109 2.65 0.614 0.964 0.998 0.29 2.518-0.085 3.096-0.375 0.581-0.818 1.388-1.065 1.815-0.783 1.346-0.169 2.97 0.583 3.649 1.347 1.212 2.821 0.228 3.563-0.955 1.084-1.728 1.628-4.046 1.628-4.046s0.159 0.062 0.317 0.111c0.17 0.048 0.34 0.083 0.34 0.083s-0.301 1.446-0.567 2.499m-2.935 8.096c0.735-0.688 1.602-1.893 1.602-1.893s-0.378 1.304-0.558 2.424c-0.159 0.985-0.157 2.43-0.157 2.43s-0.396 0.479-1.308 0.877c-0.947 0.413-1.815 0.325-1.815 0.325s0.197-0.665 0.359-1.439c0.161-0.773 0.259-1.685 0.259-1.685s0.886-0.364 1.618-1.039m-5.233-19.205c-0.318-0.128-0.641-0.414-0.586-1.004 0.021-0.206 0.151-0.62 0.151-0.62s0.339 0.743 1.045 0.636c0.753-0.112 1.333-1.279 1.579-1.604 0.247-0.323 1.104-1.46 2.007-1.46 0.532 0 1.317 0.194 2.298 1.364 0.305 0.363 1.307 1.573 1.694 3.11 0.224 0.889 0.137 1.924 0.137 1.924l-0.641 0.175s-0.02-2.184-1.656-3.348c-0.881-0.622-2.054-1.209-3.422-0.131-0.236 0.184-1.594 1.358-2.606 0.958m9.776 7.707c-1.695 0-3.069-0.942-3.069-2.1 0-1.161 1.374-2.098 3.069-2.098 1.694 0 3.069 0.937 3.069 2.098 0 1.158-1.375 2.1-3.069 2.1m1.514-12.873c0.527 0.922 0.823 2.16 0.823 2.16s-0.734 0.756-1.272 1.925c-0.773 1.688-0.562 3.361-0.562 3.361s-0.147-0.011-0.26-0.011c-0.112 0-0.243-5e-3 -0.243-5e-3s-0.132 5e-3 -0.246 5e-3c-0.113 0-0.258 0.011-0.258 0.011s0.213-1.673-0.562-3.361c-0.538-1.169-1.272-1.925-1.272-1.925s0.296-1.238 0.823-2.16c0.628-1.106 1.515-2.125 1.515-2.125s0.886 1.019 1.514 2.125m-26.841-24.398c0.581 0.84 1.578 3.343 0.012 5.695-0.737 1.111-2.511 2.178-4.411 1.371-0.878-0.373-2.913-1.188-4.295-4.043-0.471-0.973-1.16-2.891-1.498-4.232-0.267-1.054-0.567-2.498-0.567-2.498s0.17-0.035 0.341-0.085c0.156-0.045 0.315-0.111 0.315-0.111s0.542 2.318 1.628 4.051c0.742 1.18 2.218 2.162 3.564 0.953 0.753-0.679 1.366-2.305 0.583-3.652-0.246-0.424-0.687-1.23-1.064-1.813-0.376-0.58-1.052-2.097-0.086-3.096 0.488-0.504 1.26-1.182 2.65-0.615 0.838 0.344 1.076 1.125 1.076 1.125s-1.319-0.811-2.127 0.144c-0.325 0.381-0.679 1.333 0.71 3.025 0.459 0.554 2.433 2.719 3.169 3.781m-5.379 9.612c0.162 0.772 0.359 1.438 0.359 1.438s-0.87 0.089-1.816-0.326c-0.91-0.398-1.308-0.874-1.308-0.874s1e-3 -1.448-0.155-2.433c-0.181-1.12-0.56-2.424-0.56-2.424s0.866 1.208 1.603 1.893c0.728 0.675 1.618 1.039 1.618 1.039s0.098 0.913 0.259 1.687m-6.42-13.28s1.08 5.018 1.353 6.225c1.098 4.835 1.115 7.201 0.614 9.718-0.365 1.832-1.967 3.934-1.967 3.934s-1.606-2.102-1.97-3.934c-0.501-2.517-0.482-4.883 0.615-9.718 0.274-1.207 1.355-6.225 1.355-6.225m0-0.942c-1.696 0-3.069-0.942-3.069-2.1 0-1.16 1.373-2.099 3.069-2.099 1.693 0 3.069 0.939 3.069 2.099 0 1.158-1.376 2.1-3.069 2.1m3.28-10.397c0.985-1.169 1.766-1.361 2.299-1.361 0.901 0 1.759 1.136 2.007 1.459 0.244 0.323 0.825 1.49 1.58 1.604 0.706 0.105 1.043-0.638 1.043-0.638s0.131 0.416 0.15 0.622c0.056 0.589-0.267 0.876-0.585 1.005-1.011 0.397-2.368-0.777-2.604-0.961-1.369-1.076-2.541-0.491-3.422 0.132-1.639 1.163-1.658 3.348-1.658 3.348l-0.639-0.175s-0.085-1.036 0.137-1.923c0.386-1.538 1.388-2.748 1.692-3.112m-5.618-0.318s0.297-1.235 0.822-2.157c0.629-1.107 1.516-2.128 1.516-2.128s0.888 1.021 1.515 2.128c0.525 0.922 0.821 2.157 0.821 2.157s-0.734 0.756-1.271 1.927c-0.774 1.687-0.563 3.36-0.563 3.36s-0.143-8e-3 -0.257-8e-3c-0.115 0-0.245-7e-3 -0.245-7e-3s-0.134 7e-3 -0.246 7e-3c-0.114 0-0.258 8e-3 -0.258 8e-3s0.211-1.673-0.561-3.36c-0.538-1.171-1.273-1.927-1.273-1.927m-8.021 2.004c0.017-0.206 0.148-0.622 0.148-0.622s0.337 0.745 1.044 0.638c0.752-0.114 1.335-1.281 1.579-1.604 0.249-0.323 1.108-1.459 2.007-1.459 0.533 0 1.316 0.192 2.299 1.361 0.306 0.364 1.306 1.574 1.694 3.112 0.222 0.887 0.137 1.923 0.137 1.923l-0.642 0.175s-0.017-2.185-1.657-3.348c-0.879-0.623-2.05-1.208-3.422-0.132-0.236 0.184-1.591 1.358-2.604 0.961-0.319-0.129-0.642-0.416-0.583-1.005m-1.456 19.016c-1.563-2.352-0.564-4.855 0.016-5.695 0.737-1.062 2.708-3.227 3.165-3.781 1.391-1.692 1.038-2.644 0.714-3.025-0.81-0.955-2.127-0.144-2.127-0.144s0.234-0.781 1.074-1.125c1.391-0.567 2.163 0.111 2.65 0.615 0.966 0.999 0.29 2.516-0.086 3.096-0.372 0.583-0.815 1.389-1.062 1.813-0.788 1.347-0.172 2.973 0.581 3.652 1.349 1.209 2.822 0.227 3.565-0.953 1.087-1.733 1.628-4.051 1.628-4.051s0.161 0.066 0.315 0.111c0.17 0.05 0.34 0.085 0.34 0.085s-0.301 1.444-0.567 2.498c-0.337 1.341-1.027 3.259-1.5 4.232-1.381 2.855-3.412 3.67-4.29 4.043-1.901 0.807-3.679-0.26-4.416-1.371m7.269 1.191c0.738-0.687 1.606-1.893 1.606-1.893s-0.383 1.304-0.559 2.424c-0.16 0.987-0.155 2.433-0.155 2.433s-0.398 0.476-1.311 0.874c-0.945 0.413-1.815 0.326-1.815 0.326s0.197-0.666 0.358-1.438c0.161-0.774 0.26-1.687 0.26-1.687s0.888-0.364 1.616-1.039m-34.919 19.672s0.298-1.238 0.821-2.16c0.629-1.106 1.516-2.125 1.516-2.125s0.887 1.019 1.517 2.125c0.524 0.922 0.821 2.16 0.821 2.16s-0.736 0.756-1.272 1.925c-0.773 1.688-0.562 3.361-0.562 3.361s-0.148-0.011-0.259-0.011c-0.113 0-0.245-5e-3 -0.245-5e-3s-0.131 5e-3 -0.245 5e-3c-0.112 0-0.256 0.011-0.256 0.011s0.209-1.673-0.563-3.361c-0.539-1.169-1.273-1.925-1.273-1.925m9.737 22.391c-0.879-0.375-2.912-1.188-4.294-4.043-0.472-0.975-1.159-2.891-1.498-4.233-0.266-1.053-0.569-2.499-0.569-2.499s0.169-0.035 0.344-0.083c0.154-0.049 0.315-0.111 0.315-0.111s0.54 2.318 1.629 4.046c0.74 1.183 2.214 2.167 3.559 0.955 0.758-0.679 1.371-2.303 0.586-3.649-0.249-0.425-0.69-1.234-1.065-1.815-0.373-0.578-1.051-2.098-0.085-3.096 0.488-0.505 1.259-1.181 2.648-0.614 0.84 0.343 1.078 1.126 1.078 1.126s-1.319-0.813-2.128 0.144c-0.323 0.381-0.678 1.328 0.712 3.021 0.458 0.557 2.431 2.721 3.168 3.783 0.581 0.84 1.579 3.343 0.013 5.696-0.739 1.11-2.512 2.179-4.413 1.372m-0.977 2.544c0.159 0.774 0.356 1.439 0.356 1.439s-0.867 0.088-1.815-0.325c-0.911-0.398-1.311-0.877-1.311-0.877s3e-3 -1.445-0.153-2.43c-0.179-1.12-0.559-2.424-0.559-2.424s0.865 1.205 1.604 1.893c0.728 0.675 1.616 1.039 1.616 1.039s0.098 0.912 0.262 1.685m-3.356-16.322c0 1.158-1.371 2.1-3.067 2.1-1.694 0-3.068-0.942-3.068-2.1 0-1.161 1.374-2.098 3.068-2.098 1.696 0 3.067 0.937 3.067 2.098m7.291-6.611c0.059 0.591-0.263 0.876-0.583 1.002-1.011 0.402-2.369-0.772-2.604-0.956-1.369-1.078-2.543-0.491-3.422 0.131-1.64 1.164-1.657 3.348-1.657 3.348l-0.64-0.175s-0.087-1.035 0.136-1.924c0.386-1.537 1.389-2.747 1.692-3.11 0.984-1.17 1.769-1.364 2.298-1.364 0.905 0 1.762 1.137 2.009 1.46 0.247 0.325 0.826 1.492 1.58 1.604 0.708 0.107 1.043-0.636 1.043-0.636s0.13 0.414 0.148 0.62m-20.717 0c0.02-0.206 0.149-0.62 0.149-0.62s0.339 0.743 1.046 0.636c0.75-0.112 1.332-1.279 1.579-1.604 0.246-0.323 1.103-1.46 2.006-1.46 0.532 0 1.314 0.194 2.297 1.364 0.307 0.363 1.306 1.573 1.693 3.11 0.223 0.889 0.137 1.924 0.137 1.924l-0.639 0.175s-0.017-2.184-1.659-3.348c-0.879-0.622-2.05-1.209-3.422-0.131-0.235 0.184-1.59 1.358-2.603 0.956-0.318-0.126-0.641-0.411-0.584-1.002m2.958 20.389c-1.898 0.807-3.674-0.262-4.411-1.372-1.566-2.353-0.569-4.856 0.011-5.696 0.739-1.062 2.71-3.226 3.168-3.783 1.392-1.693 1.035-2.64 0.713-3.021-0.809-0.957-2.127-0.144-2.127-0.144s0.234-0.783 1.077-1.126c1.388-0.567 2.159 0.109 2.65 0.614 0.963 0.998 0.289 2.518-0.088 3.096-0.375 0.581-0.816 1.39-1.065 1.815-0.783 1.346-0.169 2.97 0.586 3.649 1.345 1.212 2.819 0.228 3.562-0.955 1.086-1.728 1.629-4.046 1.629-4.046s0.159 0.062 0.314 0.111c0.173 0.048 0.342 0.083 0.342 0.083s-0.304 1.446-0.569 2.499c-0.336 1.342-1.026 3.258-1.497 4.233-1.383 2.855-3.415 3.668-4.295 4.043m4.461-2.073s-0.382 1.304-0.561 2.424c-0.156 0.985-0.155 2.43-0.155 2.43s-0.397 0.479-1.307 0.877c-0.947 0.413-1.817 0.325-1.817 0.325s0.199-0.665 0.361-1.439c0.159-0.773 0.258-1.685 0.258-1.685s0.889-0.364 1.615-1.039c0.739-0.688 1.606-1.893 1.606-1.893m4.293-2.438c1.1 4.835 1.115 7.202 0.617 9.718-0.367 1.831-1.97 3.936-1.97 3.936s-1.603-2.105-1.968-3.936c-0.501-2.516-0.482-4.883 0.614-9.718 0.273-1.207 1.354-6.223 1.354-6.223s1.082 5.016 1.353 6.223m28.376 53.055c-1.901 0.807-3.679-0.26-4.416-1.369-1.563-2.352-0.564-4.856 0.016-5.694 0.737-1.065 2.708-3.228 3.165-3.783 1.391-1.695 1.038-2.643 0.714-3.025-0.81-0.954-2.127-0.143-2.127-0.143s0.234-0.781 1.074-1.125c1.391-0.569 2.163 0.109 2.65 0.615 0.966 0.999 0.29 2.516-0.086 3.095-0.372 0.583-0.815 1.388-1.062 1.815-0.788 1.348-0.172 2.972 0.581 3.651 1.349 1.21 2.822 0.225 3.565-0.956 1.087-1.729 1.628-4.045 1.628-4.045s0.161 0.063 0.317 0.107c0.168 0.052 0.338 0.085 0.338 0.085s-0.301 1.448-0.567 2.501c-0.337 1.342-1.027 3.256-1.5 4.232-1.381 2.853-3.412 3.667-4.29 4.039m11.147-20.207c-1.639 1.161-1.658 3.345-1.658 3.345l-0.639-0.174s-0.085-1.035 0.137-1.923c0.387-1.54 1.388-2.748 1.692-3.11 0.985-1.169 1.766-1.363 2.299-1.363 0.901 0 1.759 1.136 2.007 1.459 0.244 0.323 0.825 1.492 1.578 1.604 0.708 0.107 1.045-0.637 1.045-0.637s0.131 0.416 0.15 0.621c0.056 0.587-0.267 0.879-0.585 1.003-1.011 0.401-2.368-0.773-2.604-0.958-1.369-1.077-2.541-0.49-3.422 0.133m-3.748 4.332c1.693 0 3.069 0.939 3.069 2.099 0 1.161-1.376 2.102-3.069 2.102-1.696 0-3.069-0.941-3.069-2.102 0-1.16 1.373-2.099 3.069-2.099m2.336-6.513s-0.734 0.755-1.271 1.926c-0.774 1.687-0.563 3.357-0.563 3.357s-0.143-5e-3 -0.257-5e-3c-0.115 0-0.245-8e-3 -0.245-8e-3s-0.134 8e-3 -0.245 8e-3c-0.115 0-0.259 5e-3 -0.259 5e-3s0.211-1.67-0.561-3.357c-0.538-1.171-1.273-1.926-1.273-1.926s0.297-1.238 0.822-2.158c0.629-1.108 1.516-2.127 1.516-2.127s0.888 1.019 1.515 2.127c0.525 0.92 0.821 2.158 0.821 2.158m-5.618 0.319c0.306 0.362 1.306 1.57 1.694 3.11 0.222 0.888 0.137 1.923 0.137 1.923l-0.642 0.174s-0.017-2.184-1.657-3.345c-0.879-0.623-2.05-1.21-3.42-0.133-0.238 0.185-1.593 1.359-2.606 0.958-0.319-0.124-0.642-0.416-0.583-1.003 0.017-0.205 0.148-0.621 0.148-0.621s0.337 0.744 1.044 0.637c0.752-0.112 1.335-1.281 1.579-1.604 0.249-0.323 1.108-1.459 2.007-1.459 0.533 0 1.316 0.194 2.299 1.363m4.635 17.562c1.098 4.835 1.115 7.2 0.614 9.719-0.365 1.831-1.967 3.932-1.967 3.932s-1.606-2.101-1.97-3.932c-0.501-2.519-0.482-4.884 0.615-9.719 0.274-1.207 1.355-6.224 1.355-6.224s1.08 5.017 1.353 6.224m10.446-2.556c0.581 0.838 1.578 3.342 0.012 5.694-0.737 1.109-2.511 2.176-4.411 1.369-0.878-0.372-2.913-1.186-4.295-4.039-0.471-0.976-1.16-2.89-1.498-4.232-0.267-1.053-0.567-2.501-0.567-2.501s0.17-0.033 0.341-0.085c0.156-0.044 0.315-0.107 0.315-0.107s0.542 2.316 1.628 4.045c0.742 1.181 2.218 2.166 3.564 0.956 0.753-0.679 1.366-2.303 0.583-3.652-0.246-0.426-0.687-1.231-1.064-1.814-0.376-0.579-1.052-2.096-0.086-3.095 0.488-0.506 1.26-1.184 2.65-0.615 0.838 0.344 1.076 1.125 1.076 1.125s-1.319-0.811-2.127 0.143c-0.325 0.382-0.679 1.33 0.71 3.025 0.459 0.555 2.433 2.718 3.169 3.783m-4.246-33.375-7.552-13.193h-4e-3l-7.55 13.193h7.554zm30.534-49.181s-0.211-0.521-2.832-1.185c-2.827-0.716-3.741 2.28-3.979 2.965-1.03 2.966-3.036 3.268-4.737 3.879-1.7 0.61-6.775 2-7.655 2.252-2.661 0.756-2.401 1.519-2.153 1.933 0.467 0.773 2.394-0.103 3.648-0.511 1.971-0.636 3.288-0.863 4.315-0.739 1.936 0.234 2.207 2.468 1.703 3.999-0.405 1.226-12.804 35.532-12.804 35.532h3.436s1.272 5.119 2.086 7.263c2.061 5.444 4.029 7.489 4.689 7.917 3.192 2.069 4.147-9e-3 4.332-0.572 0.653-1.986-0.57-3.028-0.57-3.028s0.553-0.228 1.108-0.244c0.967-0.033 1.747 0.443 2.409 1.158 1.73 1.856 0.165 4.216 0.165 4.216s2.332 0.378 3.321 3.583c1.218 3.942-3.028 6.825-3.028 6.825s0.181-0.273-0.134-2.184c-0.313-1.911-3.616-2.751-5.191-3.143-3.663-0.911-6.326-3.611-7.885-5.423-1.878-2.188-3.427-7.209-3.427-7.209h-29.81s-1.547 5.021-3.427 7.209c-1.558 1.812-4.221 4.512-7.885 5.423-1.571 0.392-4.875 1.232-5.193 3.143-0.315 1.911-0.132 2.184-0.132 2.184s-4.245-2.883-3.027-6.825c0.988-3.205 3.321-3.583 3.321-3.583s-1.563-2.36 0.161-4.216c0.665-0.715 1.446-1.191 2.41-1.158 0.557 0.016 1.11 0.244 1.11 0.244s-1.221 1.042-0.571 3.028c0.185 0.563 1.139 2.641 4.335 0.572 0.66-0.428 2.627-2.473 4.688-7.917 0.815-2.144 2.085-7.263 2.085-7.263h3.437s-12.402-34.306-12.805-35.532c-0.504-1.531-0.234-3.765 1.703-3.999 1.025-0.124 2.344 0.103 4.315 0.739 1.256 0.408 3.181 1.284 3.649 0.511 0.244-0.414 0.507-1.177-2.152-1.933-0.883-0.252-5.957-1.642-7.657-2.252-1.702-0.611-3.706-0.913-4.738-3.879-0.238-0.685-1.151-3.681-3.976-2.965-2.623 0.664-2.833 1.185-2.833 1.185s1.626-4.06 4.07-5.298c4.663-2.359 7.608 1.441 7.608 1.441s1.219-1.38 3.719-0.814c0.943 0.213 1.818 0.827 2.338 1.526 0.268 0.357 0.483 0.829 0.483 0.829s-2.573-0.044-3.082 1.234c-0.277 0.693-0.248 1.686 2.265 3.297 0.801 0.517 4.647 2.66 6.235 3.734 1.637 1.106 3.83 2.761 2.795 4.817-0.824 1.636-2.493 2.262-2.493 2.262l6.381 24.231 7.766-12.75h4e-3l7.766 12.75 6.377-24.231s-1.663-0.626-2.49-2.262c-1.032-2.056 1.161-3.711 2.796-4.817 1.59-1.074 5.431-3.217 6.233-3.734 2.516-1.611 2.544-2.604 2.267-3.297-0.507-1.278-3.079-1.234-3.079-1.234s0.213-0.472 0.479-0.829c0.522-0.699 1.398-1.313 2.34-1.526 2.497-0.566 3.72 0.814 3.72 0.814s2.943-3.8 7.608-1.441c2.443 1.238 4.069 5.298 4.069 5.298m0.393 36.564c1.098 4.835 1.115 7.202 0.614 9.718-0.365 1.831-1.968 3.936-1.968 3.936s-1.604-2.105-1.969-3.936c-0.5-2.516-0.482-4.883 0.616-9.718 0.272-1.207 1.353-6.223 1.353-6.223s1.083 5.016 1.354 6.223m5.426 8.494s-0.872 0.088-1.815-0.325c-0.911-0.398-1.31-0.877-1.31-0.877s4e-3 -1.445-0.156-2.43c-0.178-1.12-0.557-2.424-0.557-2.424s0.863 1.205 1.602 1.893c0.728 0.675 1.618 1.039 1.618 1.039s0.098 0.912 0.258 1.685c0.163 0.774 0.36 1.439 0.36 1.439m5.018-11.051c0.583 0.84 1.578 3.343 0.015 5.696-0.739 1.11-2.513 2.179-4.413 1.372-0.88-0.375-2.91-1.188-4.293-4.043-0.473-0.975-1.161-2.891-1.5-4.233-0.263-1.053-0.567-2.499-0.567-2.499s0.169-0.035 0.34-0.083c0.158-0.049 0.317-0.111 0.317-0.111s0.542 2.318 1.628 4.046c0.742 1.183 2.216 2.167 3.562 0.955 0.754-0.679 1.369-2.303 0.583-3.649-0.246-0.425-0.689-1.234-1.062-1.815-0.375-0.578-1.053-2.098-0.085-3.096 0.485-0.505 1.259-1.181 2.648-0.614 0.838 0.343 1.075 1.126 1.075 1.126s-1.317-0.813-2.127 0.144c-0.323 0.381-0.678 1.328 0.713 3.021 0.456 0.557 2.43 2.721 3.166 3.783m6.174 74.482h-55.108v-3e-3h-55.092c-3.956 0-7.162-3.206-7.162-7.162v-111.83c0-15.875 12.869-28.744 28.745-28.744h20.143c2.699 0 5.235-0.748 7.151-1.934 1.478-0.87 2.779-2.009 3.833-3.35 0.607-0.772 1.513-1.152 2.4-1.126v3e-3c0.882-0.021 1.778 0.359 2.382 1.125 1.054 1.342 2.355 2.481 3.833 3.351 1.916 1.184 4.452 1.933 7.15 1.933h20.144c15.875 0 28.745 12.87 28.745 28.745v111.83c0 3.956-3.208 7.164-7.164 7.164m1.695-118.99c0-12.836-10.442-23.278-23.276-23.278h-20.144c-5.535 0-10.487-2.206-13.376-5.522-2.888 3.313-7.837 5.52-13.373 5.52h-20.143c-12.836 0-23.278 10.443-23.278 23.277v111.83c0 0.936 0.761 1.697 1.695 1.697h55.11v1e-3h55.09c0.934 0 1.695-0.759 1.695-1.695zm29.139 87.036v14.976h66.369v-14.976h-24.28v-66.03h-17.809v66.03zm135.23-59.845c-6.125-5.338-14.6-8.003-25.412-8.003-10.967 0-19.459 2.648-25.471 7.945-6.013 5.292-9.02 13.464-9.02 24.502v50.377h17.814v-50.377c0-2.193 0.187-4.345 0.564-6.463 0.38-2.117 1.172-3.993 2.384-5.615 1.21-1.627 2.894-2.954 5.049-3.975 2.155-1.022 5.05-1.529 8.68-1.529 6.352 0 10.738 1.419 13.158 4.252 2.422 2.84 3.633 7.282 3.633 13.33v50.377h17.811v-50.377c0-10.964-3.064-19.112-9.19-24.444m66.872 74.821c3.629 0 6.901-0.59 9.813-1.76 2.911-1.172 5.407-2.783 7.489-4.824 2.078-2.038 3.668-4.404 4.765-7.087 1.095-2.689 1.643-5.579 1.643-8.679 0-4.765-1.004-8.893-3.006-12.365-2.006-3.48-5.273-6.129-9.812-7.947v-0.225c2.191-0.607 4.008-1.528 5.445-2.781 1.435-1.246 2.61-2.724 3.516-4.419 0.909-1.703 1.569-3.578 1.985-5.621 0.415-2.044 0.698-4.079 0.851-6.123 0.076-1.287 0.153-2.799 0.229-4.542 0.075-1.736 0.207-3.513 0.398-5.333 0.186-1.81 0.49-3.537 0.906-5.157 0.414-1.627 1.038-3.007 1.872-4.143h-17.814c-0.984 2.568-1.585 5.631-1.814 9.193-0.225 3.548-0.565 6.953-1.022 10.208-0.605 4.234-1.889 7.332-3.854 9.301-1.968 1.968-5.182 2.95-9.645 2.95h-17.811v-31.652h-17.813v81.006zm-6.354-36.648c4.086 0 7.148 0.911 9.19 2.722 2.042 1.819 3.065 4.768 3.065 8.853 0 3.929-1.023 6.786-3.065 8.563s-5.104 2.666-9.19 2.666h-19.512v-22.804zm61.385 36.648v-33.585l31.65 33.585h22.238l-31.652-31.997 34.715-49.009h-22.349l-24.391 36.417-10.211-10.324v-26.093h-17.813v81.006zm122.57-74.821c-6.126-5.338-14.6-8.003-25.415-8.003-10.965 0-19.457 2.648-25.469 7.945-6.014 5.292-9.02 13.464-9.02 24.502v50.377h17.813v-50.377c0-2.193 0.189-4.345 0.565-6.463 0.378-2.117 1.173-3.993 2.384-5.615 1.21-1.627 2.894-2.954 5.048-3.975 2.157-1.022 5.051-1.529 8.679-1.529 6.354 0 10.739 1.419 13.161 4.252 2.421 2.84 3.633 7.282 3.633 13.33v50.377h17.809v-50.377c0-10.964-3.063-19.112-9.188-24.444" fill="#fff"/></g></g></g></g></svg>
