<svg version="1.1" viewBox="0 0 730 291" xml:space="preserve" xmlns="http://www.w3.org/2000/svg"><path d="m186.3 4.5259c-3.565-2.2522-7.0819-3.3951-10.449-3.3951-2.5346 0-6.5132 0.68517-10.118 4.2368-0.0375-0.017397-0.0736-0.036132-0.10705-0.054867-1.6514-0.82435-3.5851-0.84576-5.2526-0.057544-1.6661 0.78822-2.8772 2.2977-3.2854 4.095-0.73335 3.2251-0.96085 6.2883-0.66376 9.2739-2.1907-0.41485-4.467-0.62629-6.8009-0.62629-3.3175 0-6.0033 2.6872-6.0033 6.0006 0 0.69989 0.0683 1.3851 0.19806 2.0542-0.58748 0.52459-1.1321 1.0398-1.6393 1.5604-1.808-1.6848-4.1418-2.8103-6.7246-3.0953-0.43626-0.04684-0.8752-0.07226-1.3088-0.07226-3.102 0-5.927 1.2044-8.0347 3.1676-0.50853-0.52057-1.0505-1.0358-1.6407-1.559 0.13249-0.67045 0.19806-1.3556 0.19806-2.0555 0-3.3135-2.6858-6.0006-6.0006-6.0006-2.0528 0-4.0588 0.16326-6.0046 0.48578 0.32251-1.9458 0.48712-3.9518 0.48712-6.0033 0-3.3161-2.6885-6.002-6.0006-6.002-0.69989 0-1.3864 0.069588-2.0555 0.19806-2.3566-2.6457-4.5326-4.3787-7.8554-6.0421-1.6915-0.84576-3.6815-0.84576-5.3676 0-3.3295 1.6607-5.5055 3.3964-7.8621 6.0421-0.66911-0.13115-1.3556-0.19806-2.0555-0.19806-3.3135 0-6.0006 2.6858-6.0006 6.002 0 2.0515 0.1646 4.0588 0.48712 6.0033-1.9444-0.32251-3.9518-0.48578-6.0033-0.48578-3.3161 0-6.002 2.6872-6.002 6.0006 0 0.69989 0.06691 1.3851 0.19806 2.0542-0.58882 0.52459-1.1321 1.0398-1.6407 1.5604-1.8066-1.6848-4.1405-2.8103-6.7259-3.0953-0.43359-0.04684-0.8752-0.07226-1.3074-0.07226-3.1007 0-5.9257 1.2044-8.032 3.1689-0.50987-0.52191-1.0518-1.0371-1.6433-1.5617 0.13115-0.66911 0.1994-1.3543 0.1994-2.0542 0-3.3135-2.6872-6.0006-6.0006-6.0006-2.3365 0-4.6115 0.21144-6.8036 0.62629 0.29842-2.9856 0.07093-6.0461-0.66108-9.2726-0.40816-1.7986-1.6206-3.3081-3.2867-4.0963-1.6648-0.78822-3.6025-0.7668-5.2499 0.057544-0.03747 0.018735-0.0736 0.03747-0.10974 0.054867-3.6065-3.5517-7.5851-4.2368-10.117-4.2368-3.3697 0-6.8838 1.1428-10.452 3.3951-1.9525 1.2338-3.0231 3.4727-2.7581 5.7638 0.26363 2.2924 1.82 4.2275 4 4.9822 3.2024 1.1094 4.1231 2.4677 4.7266 13.646-2.8933 2.7193-3.8916 7.3964-2.283 12.036 0.9207 2.6617 2.5801 4.839 4.6343 6.2094l3.8648 8.5031c-2.7206 2.2375-4.4871 5.6085-4.5714 9.3957 0 0.06691-0.0027 0.13248-0.0027 0.19538v0.15256c0.08297 6.8036 5.6527 12.318 12.47 12.318h143.34c6.8236 0 12.397-5.5255 12.47-12.376 1e-3 -0.02944 1e-3 -0.06156 1e-3 -0.09502 0-0.03345-1e-3 -0.06691-1e-3 -0.10304-0.0442-3.818-1.8173-7.2291-4.5714-9.4894l3.8648-8.5018c2.0542-1.3703 3.7149-3.5476 4.637-6.2094 1.6862-4.8725 0.50317-9.7784-2.7273-12.421 0.46303-11.097 2.109-12.199 5.1682-13.261 2.18-0.75476 3.7337-2.6898 4-4.9822 0.26363-2.291-0.80829-4.5299-2.7581-5.7638m-12.523 28.198c0.55804-0.1646 1.1254-0.15657 1.654 0.05888 1.7718 0.72666 2.4476 3.5062 1.5149 6.2094-0.70525 2.0301-2.1171 3.4379-3.5276 3.7056l-7.3348 16.14h0.1365c3.5637 0 6.4543 2.8825 6.4663 6.4449v-0.02543 0.04818-0.02275c-0.0121 3.561-2.9026 6.4436-6.469 6.4436h-143.34c-3.5637 0-6.4543-2.8825-6.4663-6.4436 0 0.0067-0.0027 0.01338-0.0027 0.02275v-0.04818c0 8e-3 0.0027 0.0174 0.0027 0.02543 0.01204-3.5624 2.9026-6.4449 6.4663-6.4449h0.13918l-7.3375-16.14c-1.4105-0.26765-2.8237-1.6755-3.5276-3.7056-0.93408-2.7032-0.25694-5.4827 1.5135-6.2094 0.41217-0.16728 0.84576-0.21144 1.2847-0.14319-0.59685-14.338-1.1147-20.328-8.9474-23.039 6.8383-4.3198 12.958-3.2399 16.557 5.3998 1.08-2.1612 1.4399-3.2385 3.6012-4.3198 1.7959 7.9183-0.36132 14.038-5.4024 20.516 5.4024-5.3998 12.601-7.1983 18.719-7.1983 0 1.08-0.36132 2.5199-1.8013 3.5998 4.6784 3.5985 6.4797 5.3998 8.2796 8.9982-1.7999 3.5985-3.6012 5.3998-8.2796 8.9982 1.4399 1.08 1.8013 2.5199 1.8013 3.5985-6.1184 0-13.317-1.7999-18.719-7.197 2.5226 6.1184 10.8 11.877 14.399 11.877 3.0418 0 11.233-4.6329 16.955-12.591-1.7611-0.99297-2.9481-2.8799-2.9481-5.0465 0-3.4111 2.9521-6.1344 6.4436-5.7504 2.6831 0.29307 4.8511 2.4958 5.1067 5.1843 0.2275 2.3994-1.0104 4.5326-2.92 5.6125 5.7196 7.9584 13.911 12.591 16.955 12.591 3.5985 0 12.599-4.6798 14.398-11.877-5.3998 5.3971-12.598 7.197-18.716 7.197 0-1.0786 0.35865-2.5185 1.7986-3.5985-4.6784-3.5985-6.4784-5.3998-8.2796-8.9982 1.8013-3.5985 3.6012-5.3998 8.2796-8.9982-1.4399-1.08-1.7986-2.5199-1.7986-3.5998 6.1184 0 13.317 1.7986 18.716 7.1983-5.3998-5.3998-7.1997-12.598-7.1997-18.716 1.0786 0 2.5212 0.35865 3.5985 1.8013 3.6012-4.6811 5.3998-6.481 9.0009-8.2796 3.5958 1.7986 5.3971 3.5985 8.9956 8.2796 1.08-1.4426 2.5226-1.8013 3.6012-1.8013 0 6.1184-1.7999 13.317-7.1997 18.716 5.3998-5.3998 12.598-7.1983 18.718-7.1983 0 1.08-0.35998 2.5199-1.7999 3.5998 4.6798 3.5985 6.4784 5.3998 8.2769 8.9982-1.7986 3.5985-3.5972 5.3998-8.2769 8.9982 1.4399 1.08 1.7999 2.5199 1.7999 3.5985-6.1197 0-13.318-1.7999-18.718-7.197 1.7999 7.197 10.797 11.877 14.398 11.877 3.0445 0 11.236-4.6329 16.955-12.591-1.7584-0.99297-2.9468-2.8799-2.9468-5.0465 0-3.4111 2.9508-6.1344 6.4422-5.7504 2.6845 0.29307 4.8497 2.4958 5.1053 5.1843 0.23152 2.3994-1.0077 4.5326-2.9187 5.6125 5.7223 7.9584 13.911 12.591 16.958 12.591 3.5972 0 11.874-5.7584 14.395-11.877-5.3984 5.3971-12.599 7.197-18.715 7.197 0-1.0786 0.3573-2.5185 1.7986-3.5985-4.6784-3.5985-6.4797-5.3998-8.2796-8.9982 1.7999-3.5985 3.6012-5.3998 8.2796-8.9982-1.4413-1.08-1.7986-2.5199-1.7986-3.5998 6.1157 0 13.317 1.7986 18.715 7.1983-5.0384-6.4784-7.1997-12.598-5.3984-20.516 2.1586 1.0813 2.5186 2.1586 3.5985 4.3198 3.6012-8.6396 9.7196-9.7196 16.557-5.3998-7.8487 2.7179-9.1147 8.7266-9.3181 23.123m-83.159 79.631s-0.51254-1.7464-0.74807-3.2452c-0.21412-1.3195-0.20743-3.2559-0.20743-3.2559s-0.53262-0.64102-1.7544-1.1696c-1.2646-0.55402-2.4289-0.43894-2.4289-0.43894s0.26363 0.89394 0.47909 1.927c0.21546 1.0358 0.34794 2.2563 0.34794 2.2563s1.1883 0.48711 2.1626 1.3891c0.98761 0.91936 2.1492 2.5373 2.1492 2.5373m13.006-8.1097s-1.1643-0.11508-2.4302 0.43894c-1.2178 0.5286-1.7504 1.1696-1.7504 1.1696s0.0013 1.9364-0.20742 3.2559c-0.24222 1.4988-0.74941 3.2452-0.74941 3.2452s1.1589-1.6179 2.1452-2.5373c0.97423-0.90197 2.1652-1.3891 2.1652-1.3891s0.12981-1.2205 0.3466-2.2563c0.21679-1.0331 0.48043-1.927 0.48043-1.927m45.001 99.839c1.3182 1.5657 2.3646 1.824 3.0766 1.824 1.2057 0 2.3553-1.5202 2.6845-1.9525 0.32787-0.43492 1.1081-1.9966 2.1144-2.1465 0.94613-0.14319 1.3971 0.85112 1.3971 0.85112s0.17531-0.55403 0.1994-0.8297c0.0776-0.78956-0.35463-1.1723-0.78286-1.3436-1.3556-0.53529-3.1662 1.0358-3.4807 1.282-1.836 1.4426-3.4031 0.65707-4.5821-0.17531-2.192-1.5577-2.2174-4.4804-2.2174-4.4804l-0.85646 0.23419s-0.11509 1.3851 0.182 2.5748c0.51655 2.0569 1.8588 3.6761 2.2656 4.1619m-6.5413-18.464c-0.45366-1.7959-1.377-4.36-2.006-5.6647-1.8481-3.8206-4.5687-4.9086-5.745-5.4105-2.5426-1.08-4.918 0.35196-5.9056 1.836-2.0957 3.1488-0.76146 6.4984 0.0174 7.6226 0.98628 1.4212 3.6279 4.3171 4.2382 5.0625 1.8615 2.2656 1.3864 3.5329 0.95416 4.0428-1.0813 1.2807-2.8464 0.19404-2.8464 0.19404s0.31448 1.0465 1.4386 1.5055c1.8575 0.75878 2.8919-0.14587 3.5463-0.82167 1.29-1.3356 0.38808-3.3697-0.11375-4.1432-0.50184-0.77751-1.0947-1.8575-1.4252-2.4289-1.0478-1.8013-0.22616-3.9745 0.78019-4.8832 1.8026-1.6219 3.7751-0.30512 4.7681 1.278 1.4506 2.3125 2.1786 5.4145 2.1786 5.4145s0.21277-0.083 0.42422-0.14854c0.22749-0.0642 0.45499-0.11107 0.45499-0.11107s-0.4028-1.9351-0.75877-3.3442m-3.9277-10.834c0.98359 0.9207 2.1438 2.5333 2.1438 2.5333s-0.50585-1.745-0.74673-3.2439c-0.21278-1.3182-0.21011-3.2519-0.21011-3.2519s-0.52993-0.64101-1.7504-1.1736c-1.2673-0.55269-2.4289-0.43492-2.4289-0.43492s0.26363 0.88992 0.48042 1.9257c0.21546 1.0344 0.3466 2.2549 0.3466 2.2549s1.1857 0.48712 2.1653 1.3904m-7.003 25.701c-0.42556 0.1713-0.85781 0.55403-0.78421 1.3436 0.0281 0.27567 0.20208 0.8297 0.20208 0.8297s0.45366-0.99431 1.3984-0.85112c1.0077 0.14989 1.7839 1.7116 2.1131 2.1465 0.33054 0.43225 1.4774 1.9538 2.6858 1.9538 0.71194 0 1.7624-0.25962 3.0752-1.8254 0.40816-0.48577 1.7491-2.105 2.267-4.1619 0.29976-1.1897 0.18334-2.5748 0.18334-2.5748l-0.85781-0.23419s-0.0268 2.9227-2.2161 4.4804c-1.179 0.83238-2.7487 1.6179-4.5794 0.17531-0.31582-0.24624-2.1331-1.8173-3.4874-1.282m13.083-10.314c-2.2683 0-4.107 1.2606-4.107 2.8103 0 1.5537 1.8387 2.8076 4.107 2.8076 2.267 0 4.107-1.2539 4.107-2.8076 0-1.5497-1.8401-2.8103-4.107-2.8103m2.0261 17.227c0.70524-1.2338 1.1014-2.8906 1.1014-2.8906s-0.98226-1.0117-1.7022-2.5761c-1.0344-2.2589-0.75208-4.4978-0.75208-4.4978s-0.19672 0.0147-0.34794 0.0147c-0.14988 0-0.32519 7e-3 -0.32519 7e-3s-0.17665-7e-3 -0.32921-7e-3c-0.15122 0-0.34526-0.0147-0.34526-0.0147s0.28504 2.2389-0.75208 4.4978c-0.71997 1.5644-1.7022 2.5761-1.7022 2.5761s0.39612 1.6567 1.1014 2.8906c0.84041 1.4801 2.0274 2.8437 2.0274 2.8437s1.1857-1.3637 2.0261-2.8437m-35.919 32.65c0.77751-1.1241 2.1117-4.4737 0.0161-7.6212-0.98627-1.4868-3.3603-2.9147-5.9029-1.8347-1.175 0.49916-3.8983 1.5898-5.7477 5.4105-0.63031 1.3021-1.5523 3.8688-2.0047 5.6634-0.35731 1.4105-0.75878 3.3429-0.75878 3.3429s0.2275 0.0468 0.45634 0.11375c0.20876 0.0602 0.42154 0.14854 0.42154 0.14854s0.72532-3.102 2.1786-5.4212c0.99296-1.5791 2.9682-2.8932 4.7694-1.2753 1.0077 0.90865 1.828 3.0846 0.78019 4.8872-0.3292 0.56741-0.91936 1.646-1.4239 2.4262-0.50317 0.77617-1.4078 2.8063-0.11508 4.1432 0.65305 0.67447 1.6862 1.5818 3.5463 0.82301 1.1214-0.46035 1.4399-1.5055 1.4399-1.5055s-1.7651 1.0853-2.8464-0.1927c-0.43492-0.50987-0.90865-1.7839 0.95015-4.0481 0.61424-0.74138 3.2559-3.6386 4.2408-5.0598m-7.1983-12.863c0.21679-1.0331 0.48043-1.9244 0.48043-1.9244s-1.1643-0.1191-2.4302 0.43626c-1.2178 0.53262-1.7504 1.1696-1.7504 1.1696s0.0013 1.9378-0.20742 3.2559c-0.24222 1.4988-0.74941 3.2439-0.74941 3.2439s1.1589-1.6166 2.1452-2.5333c0.97423-0.9033 2.1652-1.3904 2.1652-1.3904s0.13115-1.2218 0.3466-2.2576m-8.5914 17.772s1.4453-6.7152 1.8106-8.3305c1.4694-6.4703 1.4921-9.6366 0.82167-13.005-0.48845-2.4516-2.6323-5.2646-2.6323-5.2646s-2.1492 2.813-2.6363 5.2646c-0.67045 3.3683-0.64503 6.5346 0.82301 13.005 0.36667 1.6152 1.8133 8.3305 1.8133 8.3305m0 1.2606c-2.2696 0-4.107 1.2606-4.107 2.8103 0 1.5523 1.8374 2.8089 4.107 2.8089 2.2656 0 4.107-1.2566 4.107-2.8089 0-1.5497-1.8414-2.8103-4.107-2.8103m4.3894 13.914c1.3182 1.5644 2.3633 1.8213 3.0766 1.8213 1.2058 0 2.354-1.5202 2.6858-1.9525 0.32652-0.43225 1.104-1.994 2.1144-2.1465 0.94479-0.14052 1.3958 0.85379 1.3958 0.85379s0.17531-0.55671 0.20073-0.83238c0.0749-0.78822-0.3573-1.1723-0.78286-1.3449-1.353-0.53128-3.1689 1.0398-3.4848 1.286-1.832 1.4399-3.4004 0.65707-4.5794-0.17665-2.1934-1.5564-2.2188-4.4804-2.2188-4.4804l-0.85513 0.23419s-0.11375 1.3864 0.18334 2.5734c0.51656 2.0582 1.8575 3.6775 2.2643 4.1646m-7.5182 0.42556s0.39745 1.6527 1.1 2.8866c0.84175 1.4814 2.0288 2.8478 2.0288 2.8478s1.1883-1.3663 2.0274-2.8478c0.70257-1.2338 1.0987-2.8866 1.0987-2.8866s-0.98226-1.0117-1.7009-2.5788c-1.0358-2.2576-0.75342-4.4964-0.75342-4.4964s-0.19137 0.0107-0.34392 0.0107c-0.1539 0-0.32787 9e-3 -0.32787 9e-3s-0.17932-9e-3 -0.3292-9e-3c-0.15256 0-0.34526-0.0107-0.34526-0.0107s0.28237 2.2389-0.75075 4.4964c-0.71997 1.5671-1.7036 2.5788-1.7036 2.5788m-10.734-2.6818c0.02275 0.27567 0.19806 0.83238 0.19806 0.83238s0.45098-0.99698 1.3971-0.85379c1.0063 0.15256 1.7865 1.7143 2.1131 2.1465 0.33322 0.43224 1.4828 1.9525 2.6858 1.9525 0.71328 0 1.7611-0.25694 3.0766-1.8213 0.4095-0.48711 1.7477-2.1064 2.267-4.1646 0.29709-1.187 0.18334-2.5734 0.18334-2.5734l-0.85914-0.23419s-0.02275 2.924-2.2174 4.4804c-1.1763 0.83372-2.7434 1.6166-4.5794 0.17665-0.31582-0.24624-2.1291-1.8173-3.4847-1.286-0.4269 0.17263-0.85914 0.5567-0.78019 1.3449m-1.9485-25.448c-2.0917 3.1475-0.75476 6.4971 0.02141 7.6212 0.98627 1.4212 3.6239 4.3185 4.2355 5.0598 1.8615 2.2643 1.3891 3.5383 0.9555 4.0481-1.084 1.278-2.8464 0.1927-2.8464 0.1927s0.31315 1.0452 1.4373 1.5055c1.8615 0.75878 2.8946-0.14854 3.5463-0.82301 1.2927-1.3369 0.38809-3.367-0.11509-4.1432-0.49782-0.78019-1.0907-1.8588-1.4212-2.4262-1.0545-1.8026-0.23018-3.9786 0.77751-4.8872 1.8053-1.6179 3.7765-0.30378 4.7708 1.2753 1.4547 2.3192 2.1786 5.4212 2.1786 5.4212s0.21545-0.0883 0.42154-0.14854c0.2275-0.0669 0.455-0.11375 0.455-0.11375s-0.40281-1.9324-0.75878-3.3429c-0.45098-1.7946-1.3744-4.3613-2.0073-5.6634-1.8481-3.8206-4.566-4.9113-5.741-5.4105-2.544-1.08-4.9233 0.34794-5.9096 1.8347m9.7276-1.5938c0.98761 0.91937 2.1492 2.5333 2.1492 2.5333s-0.51254-1.745-0.74807-3.2439c-0.21412-1.3208-0.20743-3.2559-0.20743-3.2559s-0.53262-0.63699-1.7544-1.1696c-1.2646-0.55269-2.4289-0.43626-2.4289-0.43626s0.26363 0.89126 0.47909 1.9244c0.21546 1.0358 0.34794 2.2576 0.34794 2.2576s1.1883 0.48712 2.1626 1.3904m-46.73-26.326s0.39879 1.6567 1.0987 2.8906c0.84175 1.4801 2.0288 2.8437 2.0288 2.8437s1.187-1.3637 2.0301-2.8437c0.70123-1.2338 1.0987-2.8906 1.0987-2.8906s-0.98494-1.0117-1.7022-2.5761c-1.0344-2.2589-0.75208-4.4978-0.75208-4.4978s-0.19806 0.0147-0.3466 0.0147c-0.15122 0-0.32787 7e-3 -0.32787 7e-3s-0.17531-7e-3 -0.32787-7e-3c-0.14988 0-0.34259-0.0147-0.34259-0.0147s0.27969 2.2389-0.75342 4.4978c-0.7213 1.5644-1.7036 2.5761-1.7036 2.5761m13.03-29.964c-1.1763 0.50184-3.8969 1.5898-5.7464 5.4105-0.63164 1.3048-1.551 3.8688-2.0047 5.6647-0.35597 1.4092-0.76145 3.3442-0.76145 3.3442s0.22616 0.0468 0.46035 0.11107c0.20609 0.0656 0.42154 0.14854 0.42154 0.14854s0.72264-3.102 2.18-5.4145c0.99029-1.5831 2.9628-2.8999 4.7628-1.278 1.0144 0.90866 1.8347 3.0819 0.7842 4.8832-0.33322 0.56874-0.92338 1.6514-1.4252 2.4289-0.49916 0.7735-1.4065 2.8076-0.11375 4.1432 0.65306 0.6758 1.6848 1.5804 3.5436 0.82167 1.1241-0.45901 1.4426-1.5068 1.4426-1.5068s-1.7651 1.088-2.8478-0.1927c-0.43225-0.50987-0.90732-1.7772 0.95282-4.0428 0.61291-0.74539 3.2532-3.6413 4.2395-5.0625 0.77751-1.1241 2.1131-4.4737 0.0174-7.6226-0.98895-1.4854-3.3616-2.916-5.9056-1.836m-1.3074-3.4044c0.21278-1.0358 0.47641-1.9257 0.47641-1.9257s-1.1602-0.11777-2.4289 0.43492c-1.2191 0.53262-1.7544 1.1736-1.7544 1.1736s4e-3 1.9337-0.20475 3.2519c-0.23954 1.4988-0.74807 3.2439-0.74807 3.2439s1.1576-1.6126 2.1465-2.5333c0.97423-0.9033 2.1626-1.3904 2.1626-1.3904s0.13115-1.2205 0.35062-2.2549m-4.4911 21.843c0-1.5497-1.8347-2.8103-4.1043-2.8103-2.267 0-4.1057 1.2606-4.1057 2.8103 0 1.5537 1.8387 2.8076 4.1057 2.8076 2.2696 0 4.1043-1.2539 4.1043-2.8076m9.757 8.847c0.07896-0.7909-0.35195-1.1723-0.78019-1.3409-1.353-0.53797-3.1703 1.0331-3.4847 1.2794-1.832 1.4426-3.4031 0.65707-4.5794-0.17531-2.1947-1.5577-2.2174-4.4804-2.2174-4.4804l-0.85647 0.23419s-0.11643 1.3851 0.182 2.5748c0.51656 2.0569 1.8588 3.6761 2.2643 4.1619 1.3168 1.5657 2.3673 1.8254 3.0752 1.8254 1.2111 0 2.358-1.5216 2.6885-1.9538 0.33054-0.43492 1.1054-1.9966 2.1144-2.1465 0.94746-0.14319 1.3958 0.85112 1.3958 0.85112s0.17397-0.55403 0.19806-0.8297m-27.724 0c0.02677 0.27567 0.1994 0.8297 0.1994 0.8297s0.45366-0.99431 1.3998-0.85112c1.0037 0.14989 1.7825 1.7116 2.1131 2.1465 0.3292 0.43225 1.4761 1.9538 2.6845 1.9538 0.71194 0 1.7584-0.25962 3.0739-1.8254 0.41084-0.48577 1.7477-2.105 2.2656-4.1619 0.29842-1.1897 0.18334-2.5748 0.18334-2.5748l-0.85513-0.23419s-0.02275 2.9227-2.2201 4.4804c-1.1763 0.83238-2.7434 1.6179-4.5794 0.17531-0.31448-0.24624-2.1278-1.8173-3.4834-1.2794-0.42556 0.16862-0.8578 0.55001-0.78153 1.3409m3.9585-27.285c-2.54-1.08-4.9167 0.35062-5.9029 1.836-2.0957 3.1488-0.76145 6.4984 0.01472 7.6226 0.98895 1.4212 3.6266 4.3171 4.2395 5.0625 1.8628 2.2656 1.3851 3.5329 0.95416 4.0428-1.0826 1.2807-2.8464 0.1927-2.8464 0.1927s0.31315 1.0478 1.4413 1.5068c1.8575 0.75878 2.8892-0.14587 3.5463-0.82167 1.2887-1.3356 0.38675-3.3697-0.11776-4.1432-0.50184-0.77751-1.092-1.8601-1.4252-2.4289-1.0478-1.8013-0.22616-3.9745 0.7842-4.8832 1.7999-1.6219 3.7725-0.30512 4.7668 1.278 1.4533 2.3125 2.18 5.4145 2.18 5.4145s0.21278-0.083 0.4202-0.14854c0.23151-0.0642 0.45767-0.11107 0.45767-0.11107s-0.40682-1.9351-0.76145-3.3442c-0.44964-1.7959-1.373-4.36-2.0033-5.6647-1.8508-3.8206-4.57-4.9086-5.7477-5.4105m5.9698 2.7742s-0.5112-1.745-0.75075-3.2439c-0.20876-1.3182-0.20742-3.2519-0.20742-3.2519s-0.53128-0.64101-1.7491-1.1736c-1.2673-0.55269-2.4316-0.43492-2.4316-0.43492s0.26631 0.88992 0.4831 1.9257c0.21278 1.0344 0.34526 2.2549 0.34526 2.2549s1.1897 0.48712 2.1612 1.3904c0.98895 0.9207 2.1492 2.5333 2.1492 2.5333m5.745 3.2626c1.4721-6.4703 1.4921-9.6379 0.82569-13.005-0.49113-2.4503-2.6363-5.2673-2.6363-5.2673s-2.1452 2.817-2.6336 5.2673c-0.67045 3.367-0.64503 6.5346 0.82167 13.005 0.36534 1.6152 1.812 8.3278 1.812 8.3278s1.448-6.7126 1.8106-8.3278m37.974-71c-2.544-1.08-4.9233 0.34794-5.9096 1.832-2.0917 3.1475-0.75476 6.4984 0.02141 7.6199 0.98627 1.4252 3.6239 4.3198 4.2355 5.0625 1.8615 2.2683 1.3891 3.5369 0.9555 4.0481-1.084 1.2767-2.8464 0.19137-2.8464 0.19137s0.31315 1.0452 1.4373 1.5055c1.8615 0.76146 2.8946-0.14586 3.5463-0.82301 1.2927-1.3369 0.38809-3.367-0.11509-4.1418-0.49782-0.78019-1.0907-1.8575-1.4212-2.4289-1.0545-1.8039-0.23018-3.9772 0.77751-4.8859 1.8053-1.6193 3.7765-0.3011 4.7708 1.2793 1.4547 2.3138 2.1786 5.4131 2.1786 5.4131s0.21545-0.0843 0.42422-0.14319c0.22482-0.0696 0.45232-0.11375 0.45232-0.11375s-0.40281-1.9378-0.75878-3.3469c-0.45098-1.7959-1.3744-4.3573-2.0073-5.6634-1.8481-3.818-4.566-4.9073-5.741-5.4051m14.917 27.042c-2.1934-1.5537-2.2188-4.4764-2.2188-4.4764l-0.85513 0.23285s-0.11375 1.3851 0.18334 2.5734c0.51789 2.0609 1.8575 3.6774 2.2643 4.1619 1.3182 1.5644 2.3633 1.824 3.0766 1.824 1.2058 0 2.354-1.5202 2.6858-1.9525 0.32652-0.43225 1.104-1.9966 2.1117-2.1465 0.94747-0.14319 1.3984 0.85245 1.3984 0.85245s0.17531-0.5567 0.20073-0.83104c0.0749-0.78554-0.3573-1.1763-0.78286-1.3422-1.353-0.53663-3.1689 1.0344-3.4848 1.282-1.832 1.4413-3.4004 0.65573-4.5794-0.17798m-5.0157-5.7972c2.2656 0 4.107-1.2566 4.107-2.8089 0-1.5537-1.8414-2.813-4.107-2.813-2.2696 0-4.107 1.2593-4.107 2.813 0 1.5523 1.8374 2.8089 4.107 2.8089m3.1261 8.7159s-0.98226-1.0104-1.7009-2.5774c-1.0358-2.2576-0.75342-4.4924-0.75342-4.4924s-0.19137 7e-3 -0.34392 7e-3c-0.1539 0-0.32787 0.0107-0.32787 0.0107s-0.17932-0.0107-0.32787-0.0107c-0.1539 0-0.3466-7e-3 -0.3466-7e-3s0.28237 2.2348-0.75075 4.4924c-0.71997 1.5671-1.7036 2.5774-1.7036 2.5774s0.39745 1.6567 1.1 2.8879c0.84175 1.4828 2.0288 2.8464 2.0288 2.8464s1.1883-1.3636 2.0274-2.8464c0.70257-1.2312 1.0987-2.8879 1.0987-2.8879m-7.5182-0.42689c0.4095-0.48444 1.7477-2.101 2.267-4.1619 0.29709-1.1884 0.18334-2.5734 0.18334-2.5734l-0.85914-0.23285s-0.02275 2.9227-2.2174 4.4764c-1.1763 0.83371-2.7434 1.6192-4.5767 0.17798-0.3185-0.24757-2.1318-1.8186-3.4874-1.282-0.4269 0.16594-0.85914 0.5567-0.78019 1.3422 0.02275 0.27434 0.19806 0.83104 0.19806 0.83104s0.45098-0.99564 1.3971-0.85245c1.0063 0.14988 1.7865 1.7143 2.1131 2.1465 0.33322 0.43225 1.4828 1.9525 2.6858 1.9525 0.71328 0 1.7611-0.25961 3.0766-1.824m6.2027-23.502c1.4694-6.4703 1.4921-9.6352 0.82167-13.006-0.48845-2.4503-2.6323-5.2619-2.6323-5.2619s-2.1492 2.8116-2.6363 5.2619c-0.67045 3.371-0.64503 6.5359 0.82301 13.006 0.36667 1.6152 1.8133 8.3291 1.8133 8.3291s1.4453-6.7139 1.8106-8.3291m13.979 3.4205c0.77751-1.1214 2.1117-4.4724 0.0161-7.6199-0.98627-1.4841-3.3603-2.912-5.9029-1.832-1.175 0.49782-3.8983 1.5871-5.7477 5.4051-0.63031 1.3061-1.5523 3.8675-2.0047 5.6634-0.35731 1.4092-0.75878 3.3469-0.75878 3.3469s0.2275 0.0442 0.45634 0.11375c0.20876 0.0589 0.42154 0.14319 0.42154 0.14319s0.72532-3.0993 2.1786-5.4131c0.99296-1.5804 2.9682-2.8986 4.7694-1.2793 1.0077 0.90866 1.828 3.0819 0.78019 4.8872-0.3292 0.57008-0.91936 1.6474-1.4239 2.4276-0.50317 0.77483-1.4078 2.8049-0.11508 4.1418 0.65305 0.67715 1.6862 1.5845 3.5463 0.82301 1.1214-0.46035 1.4399-1.5055 1.4399-1.5055s-1.7651 1.0853-2.8464-0.19137c-0.43492-0.5112-0.90865-1.7798 0.95015-4.0481 0.61424-0.74272 3.2559-3.6373 4.2408-5.0625m-5.6821 44.663-10.106 17.655h-0.0054l-10.104-17.655h10.109zm40.861 65.815s-0.28237 0.69722-3.7899 1.5858c-3.7832 0.95818-5.0063-3.0512-5.3248-3.9678-1.3784-3.9692-4.0629-4.3733-6.3392-5.191-2.275-0.81632-9.0665-2.6765-10.244-3.0137-3.561-1.0117-3.2131-2.0328-2.8812-2.5868 0.62495-1.0344 3.2037 0.13784 4.8819 0.68384 2.6376 0.85111 4.4001 1.1549 5.7744 0.98895 2.5908-0.31315 2.9535-3.3028 2.279-5.3516-0.54199-1.6407-17.135-47.55-17.135-47.55h4.5982s1.7022-6.8504 2.7915-9.7196c2.7581-7.2853 5.3917-10.022 6.275-10.595 4.2716-2.7688 5.5496 0.012 5.7972 0.76547 0.87387 2.6577-0.76279 4.0522-0.76279 4.0522s0.74004 0.30512 1.4828 0.32653c1.2941 0.0442 2.3379-0.59284 3.2238-1.5497 2.3151-2.4838 0.22081-5.642 0.22081-5.642s3.1208-0.50585 4.4443-4.7949c1.63-5.2753-4.0522-9.1334-4.0522-9.1334s0.24222 0.36533-0.17932 2.9227c-0.41887 2.5574-4.839 3.6815-6.9467 4.206-4.9019 1.2191-8.4656 4.8323-10.552 7.2572-2.5132 2.928-4.5861 9.6473-4.5861 9.6473h-39.893s-2.0702-6.7192-4.5861-9.6473c-2.085-2.4249-5.6487-6.0381-10.552-7.2572-2.1024-0.52459-6.5239-1.6487-6.9494-4.206-0.42154-2.5574-0.17665-2.9227-0.17665-2.9227s-5.6808 3.8581-4.0508 9.1334c1.3222 4.289 4.4443 4.7949 4.4443 4.7949s-2.0917 3.1582 0.21546 5.642c0.88992 0.95683 1.9351 1.5938 3.2251 1.5497 0.74539-0.0214 1.4854-0.32653 1.4854-0.32653s-1.634-1.3944-0.76413-4.0522c0.24757-0.75343 1.5242-3.5343 5.8012-0.76547 0.88323 0.57276 3.5155 3.3094 6.2736 10.595 1.0907 2.8692 2.7902 9.7196 2.7902 9.7196h4.5995s-16.597 45.909-17.136 47.55c-0.67447 2.0488-0.31315 5.0384 2.279 5.3516 1.3717 0.16594 3.1368-0.13784 5.7745-0.98895 1.6808-0.546 4.2569-1.7183 4.8832-0.68384 0.32653 0.55403 0.67848 1.5751-2.8799 2.5868-1.1817 0.33723-7.9718 2.1974-10.247 3.0137-2.2777 0.81765-4.9595 1.2218-6.3405 5.191-0.3185 0.91668-1.5403 4.926-5.3208 3.9678-3.5102-0.88858-3.7912-1.5858-3.7912-1.5858s2.176 5.4332 5.4466 7.0899c6.2402 3.1569 10.181-1.9284 10.181-1.9284s1.6313 1.8468 4.9769 1.0893c1.2619-0.28504 2.4329-1.1067 3.1288-2.0421 0.35864-0.47775 0.64636-1.1094 0.64636-1.1094s-3.4433 0.0589-4.1244-1.6514c-0.37069-0.9274-0.33188-2.2563 3.0311-4.4121 1.0719-0.69187 6.2187-3.5597 8.3439-4.997 2.1907-1.4801 5.1254-3.6948 3.7403-6.4462-1.1027-2.1893-3.3362-3.0271-3.3362-3.0271l8.5392-32.427 10.393 17.062h0.0054l10.393-17.062 8.5339 32.427s-2.2255 0.83773-3.3322 3.0271c-1.381 2.7514 1.5537 4.9662 3.7417 6.4462 2.1278 1.4373 7.2679 4.3051 8.3412 4.997 3.367 2.1559 3.4044 3.4847 3.0338 4.4121-0.67848 1.7102-4.1204 1.6514-4.1204 1.6514s0.28505 0.63164 0.64102 1.1094c0.69855 0.93542 1.8708 1.7571 3.1314 2.0421 3.3416 0.75744 4.9782-1.0893 4.9782-1.0893s3.9384 5.0853 10.181 1.9284c3.2693-1.6567 5.4453-7.0899 5.4453-7.0899m0.52592-48.931c1.4694-6.4703 1.4921-9.6379 0.82167-13.005-0.48845-2.4503-2.6336-5.2673-2.6336-5.2673s-2.1465 2.817-2.635 5.2673c-0.66912 3.367-0.64503 6.5346 0.82435 13.005 0.36399 1.6152 1.8106 8.3278 1.8106 8.3278s1.4493-6.7126 1.812-8.3278m7.2612-11.367s-1.1669-0.11777-2.4289 0.43492c-1.2191 0.53262-1.7531 1.1736-1.7531 1.1736s5e-3 1.9337-0.20876 3.2519c-0.2382 1.4988-0.74539 3.2439-0.74539 3.2439s1.1549-1.6126 2.1438-2.5333c0.97423-0.9033 2.1652-1.3904 2.1652-1.3904s0.13115-1.2205 0.34527-2.2549c0.21813-1.0358 0.48176-1.9257 0.48176-1.9257m6.7152 14.789c0.78019-1.1241 2.1117-4.4737 0.0201-7.6226-0.98895-1.4854-3.363-2.916-5.9056-1.836-1.1776 0.50184-3.8942 1.5898-5.745 5.4105-0.63299 1.3048-1.5537 3.8688-2.0074 5.6647-0.35195 1.4092-0.75877 3.3442-0.75877 3.3442s0.22616 0.0468 0.45499 0.11107c0.21144 0.0656 0.42422 0.14854 0.42422 0.14854s0.72532-3.102 2.1786-5.4145c0.99296-1.5831 2.9655-2.8999 4.7668-1.278 1.009 0.90866 1.832 3.0819 0.78019 4.8832-0.32921 0.56874-0.92204 1.6514-1.4212 2.4289-0.50184 0.7735-1.4092 2.8076-0.11375 4.1432 0.64904 0.6758 1.6848 1.5804 3.5436 0.82167 1.1214-0.45901 1.4386-1.5068 1.4386-1.5068s-1.7624 1.088-2.8464-0.1927c-0.43225-0.50987-0.90732-1.7772 0.95416-4.0428 0.61023-0.74539 3.2519-3.6413 4.2368-5.0625m8.2622-99.674h-73.747v4e-3h-73.726c-5.294 0-9.5844 4.2904-9.5844 9.5844v149.65c0 21.244 17.222 38.466 38.467 38.466h26.956c3.6119 0 7.0056 1.001 9.5697 2.5881 1.9779 1.1643 3.7189 2.6885 5.1294 4.4831 0.8123 1.0331 2.0247 1.5416 3.2117 1.5068v-4e-3c1.1803 0.0281 2.3794-0.48043 3.1877-1.5055 1.4105-1.7959 3.1515-3.3201 5.1294-4.4844 2.564-1.5845 5.9578-2.5868 9.5683-2.5868h26.957c21.244 0 38.467-17.223 38.467-38.467v-149.65c0-5.294-4.293-9.5871-9.5871-9.5871m2.2683 159.24c0 17.178-13.974 31.151-31.149 31.151h-26.957c-7.4071 0-14.034 2.9521-17.9 7.3897-3.8648-4.4336-10.488-7.387-17.896-7.387h-26.956c-17.178 0-31.151-13.975-31.151-31.15v-149.65c0-1.2526 1.0184-2.271 2.2683-2.271h73.75v-0.0013h73.723c1.2499 0 2.2683 1.0157 2.2683 2.2683zm38.995-116.47v-20.041h88.817v20.041h-32.492v88.363h-23.833v-88.363zm180.97 80.086c-8.1966 7.1435-19.538 10.71-34.007 10.71-14.676 0-26.041-3.5436-34.086-10.632-8.0468-7.0819-12.071-18.018-12.071-32.789v-67.416h23.839v67.416c0 2.9347 0.25025 5.8146 0.75476 8.649 0.50853 2.833 1.5684 5.3436 3.1903 7.5142 1.6192 2.1773 3.8728 3.9531 6.7567 5.3194 2.8839 1.3677 6.7581 2.0462 11.616 2.0462 8.5004 0 14.37-1.899 17.608-5.6902 3.2412-3.8006 4.8618-9.745 4.8618-17.839v-67.416h23.835v67.416c0 14.672-4.1003 25.576-12.298 32.712m89.49-100.13c4.8564 0 9.2351 0.78955 13.132 2.3553 3.8956 1.5684 7.2358 3.7243 10.022 6.4556 2.7808 2.7273 4.9086 5.8936 6.3767 9.484 1.4654 3.5985 2.1987 7.466 2.1987 11.614 0 6.3766-1.3436 11.901-4.0227 16.547-2.6845 4.657-7.0565 8.202-13.131 10.635v0.3011c2.9321 0.8123 5.3636 2.0448 7.2866 3.7216 1.9204 1.6674 3.4928 3.6453 4.7052 5.9136 1.2164 2.279 2.0997 4.7882 2.6564 7.5222 0.55536 2.7353 0.93408 5.4586 1.1388 8.194 0.10171 1.7223 0.20475 3.7457 0.30645 6.0782 0.10037 2.3232 0.27702 4.7012 0.53262 7.1368 0.24891 2.4222 0.65573 4.7333 1.2124 6.9012 0.55403 2.1773 1.3891 4.0241 2.5052 5.5443h-23.839c-1.3168-3.4366-2.1211-7.5356-2.4275-12.302-0.3011-4.748-0.7561-9.3047-1.3677-13.661-0.80963-5.6661-2.5279-9.8119-5.1575-12.447-2.6336-2.6336-6.9347-3.9478-12.907-3.9478h-23.835v42.358h-23.838v-108.4zm-8.5031 49.043c5.468 0 9.5656-1.2191 12.298-3.6427 2.7327-2.4342 4.1017-6.3807 4.1017-11.847 0-5.2579-1.369-9.0812-4.1017-11.459-2.7327-2.378-6.8303-3.5677-12.298-3.5677h-26.112v30.517zm82.147-49.043v44.944l42.355-44.944h29.76l-42.358 42.819 46.457 65.585h-29.908l-32.641-48.734-13.665 13.816v34.918h-23.838v-108.4zm164.03 100.13c-8.198 7.1435-19.538 10.71-34.011 10.71-14.674 0-26.038-3.5436-34.083-10.632-8.0481-7.0819-12.071-18.018-12.071-32.789v-67.416h23.838v67.416c0 2.9347 0.25293 5.8146 0.7561 8.649 0.50585 2.833 1.5697 5.3436 3.1903 7.5142 1.6193 2.1773 3.8728 3.9531 6.7554 5.3194 2.8866 1.3677 6.7594 2.0462 11.614 2.0462 8.5031 0 14.371-1.899 17.612-5.6902 3.2398-3.8006 4.8618-9.745 4.8618-17.839v-67.416h23.833v67.416c0 14.672-4.099 25.576-12.296 32.712" fill="#231f20" stroke-width="1.3382"/></svg>
