<svg version="1.1" viewBox="0 0 730 291" xml:space="preserve" xmlns="http://www.w3.org/2000/svg"><path d="m186.92 4.542c-3.578-2.26-7.106-3.406-10.485-3.406-2.542 0-6.532 0.687-10.153 4.249-0.034-0.018-0.07-0.036-0.107-0.054-1.654-0.827-3.596-0.85-5.269-0.057-1.67 0.79-2.887 2.305-3.296 4.107-0.736 3.238-0.965 6.311-0.665 9.305-2.2-0.415-4.482-0.63-6.826-0.63-3.325 0-6.021 2.696-6.021 6.023 0 0.701 0.067 1.39 0.199 2.061-0.592 0.526-1.137 1.042-1.646 1.565-1.813-1.69-4.156-2.822-6.747-3.105-0.436-0.047-0.878-0.071-1.313-0.071-3.112 0-5.946 1.206-8.061 3.178-0.509-0.525-1.054-1.039-1.646-1.567 0.132-0.671 0.199-1.36 0.199-2.061 0-3.327-2.697-6.023-6.021-6.023-2.06 0-4.071 0.166-6.023 0.488 0.322-1.95 0.486-3.963 0.486-6.023 0-3.324-2.694-6.021-6.021-6.021-0.701 0-1.39 0.067-2.061 0.199-2.364-2.654-4.548-4.395-7.884-6.063-1.693-0.848-3.69-0.848-5.385 0-3.337 1.668-5.522 3.407-7.888 6.063-0.669-0.132-1.358-0.199-2.061-0.199-3.325 0-6.022 2.697-6.022 6.021 0 2.06 0.167 4.073 0.489 6.023-1.952-0.322-3.963-0.488-6.023-0.488-3.325 0-6.021 2.696-6.021 6.023 0 0.701 0.067 1.39 0.199 2.061-0.592 0.526-1.135 1.042-1.646 1.565-1.813-1.69-4.156-2.822-6.747-3.105-0.436-0.047-0.878-0.071-1.314-0.071-3.109 0-5.946 1.206-8.06 3.178-0.509-0.525-1.054-1.039-1.646-1.567 0.132-0.671 0.199-1.36 0.199-2.061 0-3.327-2.697-6.023-6.021-6.023-2.344 0-4.627 0.215-6.826 0.63 0.3-2.994 0.071-6.067-0.663-9.305-0.412-1.802-1.626-3.317-3.298-4.107-1.671-0.791-3.613-0.77-5.267 0.057-0.039 0.018-0.073 0.036-0.11 0.054-3.618-3.562-7.612-4.249-10.152-4.249-3.38 0-6.907 1.146-10.487 3.406-1.957 1.237-3.031 3.483-2.765 5.782 0.265 2.299 1.824 4.243 4.012 4.999 3.215 1.113 4.139 2.475 4.743 13.692-2.903 2.729-3.904 7.42-2.292 12.076 0.924 2.668 2.59 4.856 4.65 6.23l3.88 8.533c-2.73 2.246-4.502 5.626-4.588 9.425-2e-3 0.066-2e-3 0.131-2e-3 0.196v0.152c0.084 6.826 5.673 12.36 12.511 12.36h143.81c6.844 0 12.437-5.542 12.51-12.414 2e-3 -0.033 2e-3 -0.065 2e-3 -0.098 0-0.034-2e-3 -0.069-2e-3 -0.105-0.044-3.828-1.824-7.252-4.585-9.518l3.876-8.531c2.062-1.374 3.728-3.562 4.652-6.23 1.691-4.887 0.505-9.811-2.735-12.465 0.465-11.132 2.115-12.239 5.186-13.303 2.186-0.758 3.745-2.7 4.01-4.999 0.266-2.299-0.809-4.545-2.765-5.782m-12.565 28.29c0.562-0.166 1.127-0.156 1.66 0.061 1.778 0.73 2.457 3.517 1.519 6.228-0.706 2.037-2.123 3.45-3.54 3.72l-7.359 16.192h0.136c3.576 0 6.477 2.893 6.489 6.467v-0.025 0.047-0.022c-0.012 3.574-2.913 6.466-6.489 6.466h-143.81c-3.576 0-6.475-2.892-6.487-6.466 0 8e-3 -3e-3 0.016-3e-3 0.022v-0.047c0 8e-3 3e-3 0.016 3e-3 0.025 0.012-3.574 2.911-6.467 6.487-6.467h0.138l-7.361-16.192c-1.415-0.27-2.833-1.683-3.538-3.72-0.939-2.711-0.259-5.498 1.518-6.228 0.414-0.17 0.85-0.213 1.288-0.146-0.598-14.383-1.117-20.392-8.977-23.114 6.86-4.333 13.001-3.25 16.611 5.416 1.083-2.165 1.446-3.249 3.613-4.332 1.806 7.945-0.363 14.085-5.417 20.583 5.417-5.415 12.638-7.221 18.779-7.221 0 1.082-0.361 2.528-1.807 3.61 4.695 3.611 6.502 5.419 8.306 9.03-1.804 3.61-3.611 5.416-8.306 9.027 1.446 1.085 1.807 2.53 1.807 3.612-6.141 0-13.362-1.806-18.779-7.223 2.528 6.141 10.834 11.917 14.444 11.917 3.053 0 11.272-4.647 17.013-12.632-1.766-0.998-2.958-2.891-2.958-5.062 0-3.424 2.962-6.157 6.465-5.772 2.692 0.294 4.868 2.506 5.125 5.2 0.229 2.408-1.014 4.549-2.933 5.634 5.741 7.985 13.959 12.632 17.014 12.632 3.611 0 12.64-4.694 14.445-11.917-5.417 5.417-12.638 7.223-18.779 7.223 0-1.082 0.361-2.527 1.804-3.612-4.693-3.611-6.499-5.417-8.305-9.027 1.806-3.611 3.612-5.419 8.305-9.03-1.443-1.082-1.804-2.528-1.804-3.61 6.141 0 13.362 1.806 18.779 7.221-5.417-5.415-7.223-12.638-7.223-18.779 1.084 0 2.53 0.363 3.612 1.807 3.611-4.695 5.417-6.5 9.029-8.306 3.611 1.806 5.417 3.611 9.028 8.306 1.082-1.444 2.528-1.807 3.61-1.807 0 6.141-1.806 13.364-7.221 18.779 5.415-5.415 12.638-7.221 18.779-7.221 0 1.082-0.361 2.528-1.807 3.61 4.696 3.611 6.502 5.419 8.306 9.03-1.804 3.61-3.61 5.416-8.306 9.027 1.446 1.085 1.807 2.53 1.807 3.612-6.141 0-13.364-1.806-18.779-7.223 1.806 7.223 10.832 11.917 14.444 11.917 3.056 0 11.272-4.647 17.013-12.632-1.766-0.998-2.958-2.891-2.958-5.062 0-3.424 2.962-6.157 6.465-5.772 2.693 0.294 4.866 2.506 5.123 5.2 0.229 2.408-1.014 4.549-2.929 5.634 5.739 7.985 13.957 12.632 17.01 12.632 3.613 0 11.919-5.776 14.447-11.917-5.417 5.417-12.64 7.223-18.779 7.223 0-1.082 0.361-2.527 1.806-3.612-4.695-3.611-6.501-5.417-8.305-9.027 1.804-3.611 3.61-5.419 8.305-9.03-1.445-1.082-1.806-2.528-1.806-3.61 6.139 0 13.362 1.806 18.779 7.221-5.056-6.498-7.223-12.638-5.417-20.583 2.167 1.083 2.528 2.167 3.61 4.332 3.613-8.666 9.753-9.749 16.614-5.416-7.874 2.726-9.145 8.755-9.35 23.199m-83.436 79.897s-0.515-1.752-0.752-3.256c-0.213-1.324-0.207-3.264-0.207-3.264s-0.535-0.643-1.761-1.176c-1.269-0.555-2.435-0.438-2.435-0.438s0.264 0.894 0.48 1.932c0.215 1.038 0.347 2.263 0.347 2.263s1.196 0.488 2.171 1.394c0.992 0.923 2.157 2.545 2.157 2.545m13.05-8.134s-1.168-0.117-2.441 0.438c-1.218 0.533-1.754 1.176-1.754 1.176s2e-3 1.94-0.206 3.264c-0.244 1.504-0.755 3.256-0.755 3.256s1.164-1.622 2.155-2.545c0.976-0.906 2.172-1.394 2.172-1.394s0.129-1.225 0.346-2.263c0.219-1.038 0.483-1.932 0.483-1.932m45.151 100.17c1.322 1.569 2.372 1.83 3.085 1.83 1.21 0 2.364-1.526 2.694-1.962 0.331-0.434 1.113-2.001 2.123-2.151 0.949-0.144 1.401 0.856 1.401 0.856s0.176-0.558 0.198-0.836c0.078-0.792-0.354-1.175-0.782-1.346-1.36-0.539-3.179 1.038-3.497 1.286-1.839 1.447-3.412 0.658-4.594-0.177-2.199-1.561-2.224-4.494-2.224-4.494l-0.861 0.233s-0.116 1.391 0.184 2.585c0.517 2.063 1.863 3.687 2.273 4.176m-6.565-18.525c-0.454-1.802-1.378-4.375-2.011-5.683-1.854-3.833-4.583-4.928-5.765-5.429-2.552-1.082-4.934 0.351-5.926 1.841-2.102 3.161-0.762 6.522 0.019 7.649 0.989 1.425 3.638 4.33 4.253 5.08 1.865 2.273 1.39 3.546 0.957 4.057-1.087 1.283-2.857 0.192-2.857 0.192s0.314 1.05 1.444 1.511c1.865 0.762 2.901-0.146 3.557-0.825 1.296-1.34 0.39-3.378-0.115-4.156-0.503-0.779-1.097-1.865-1.427-2.437-1.052-1.806-0.229-3.988 0.782-4.9 1.806-1.626 3.789-0.306 4.785 1.281 1.457 2.324 2.185 5.433 2.185 5.433s0.213-0.083 0.424-0.146c0.229-0.066 0.458-0.113 0.458-0.113s-0.406-1.942-0.763-3.355m-3.943-10.87c0.992 0.924 2.155 2.542 2.155 2.542s-0.51-1.75-0.752-3.254c-0.213-1.324-0.208-3.266-0.208-3.266s-0.532-0.64-1.758-1.176c-1.271-0.553-2.437-0.438-2.437-0.438s0.264 0.894 0.481 1.932c0.219 1.04 0.348 2.267 0.348 2.267s1.192 0.486 2.171 1.393m-7.024 25.786c-0.428 0.171-0.859 0.554-0.784 1.346 0.026 0.278 0.202 0.836 0.202 0.836s0.454-1 1.401-0.856c1.014 0.15 1.792 1.717 2.121 2.151 0.332 0.436 1.484 1.962 2.694 1.962 0.716 0 1.77-0.261 3.087-1.83 0.41-0.489 1.754-2.113 2.275-4.176 0.3-1.194 0.182-2.585 0.182-2.585l-0.859-0.233s-0.029 2.933-2.224 4.494c-1.184 0.835-2.757 1.624-4.596 0.177-0.316-0.248-2.139-1.825-3.499-1.286m13.127-10.349c-2.275 0-4.12 1.263-4.12 2.82s1.845 2.818 4.12 2.818c2.274 0 4.121-1.261 4.121-2.818s-1.847-2.82-4.121-2.82m2.035 17.287c0.705-1.241 1.103-2.901 1.103-2.901s-0.986-1.016-1.709-2.587c-1.036-2.265-0.754-4.511-0.754-4.511s-0.195 0.014-0.347 0.014-0.328 6e-3 -0.328 6e-3 -0.177-6e-3 -0.329-6e-3 -0.347-0.014-0.347-0.014 0.284 2.246-0.756 4.511c-0.721 1.571-1.707 2.587-1.707 2.587s0.398 1.66 1.103 2.901c0.846 1.484 2.036 2.852 2.036 2.852s1.19-1.368 2.035-2.852m-36.043 32.756c0.781-1.127 2.121-4.488 0.017-7.645-0.988-1.492-3.37-2.925-5.922-1.843-1.178 0.503-3.913 1.596-5.767 5.427-0.631 1.31-1.555 3.885-2.012 5.685-0.356 1.413-0.76 3.355-0.76 3.355s0.227 0.047 0.458 0.113c0.209 0.061 0.424 0.146 0.424 0.146s0.728-3.109 2.185-5.435c0.996-1.583 2.976-2.903 4.785-1.281 1.013 0.912 1.834 3.096 0.782 4.902-0.33 0.572-0.922 1.654-1.429 2.437-0.503 0.778-1.411 2.816-0.116 4.156 0.655 0.679 1.693 1.589 3.56 0.827 1.125-0.462 1.444-1.511 1.444-1.511s-1.772 1.089-2.859-0.194c-0.434-0.511-0.91-1.788 0.957-4.061 0.614-0.744 3.266-3.651 4.253-5.078m-7.221-12.906c0.219-1.035 0.483-1.929 0.483-1.929s-1.168-0.118-2.441 0.435c-1.218 0.536-1.754 1.178-1.754 1.178s2e-3 1.94-0.206 3.264c-0.244 1.504-0.755 3.256-0.755 3.256s1.164-1.622 2.153-2.544c0.978-0.907 2.174-1.393 2.174-1.393s0.129-1.227 0.346-2.267m-8.62 17.832s1.452-6.736 1.817-8.358c1.474-6.492 1.498-9.67 0.825-13.048-0.491-2.461-2.642-5.285-2.642-5.285s-2.155 2.824-2.643 5.285c-0.673 3.378-0.649 6.556 0.823 13.048 0.369 1.622 1.82 8.358 1.82 8.358m0 1.265c-2.276 0-4.121 1.263-4.121 2.82s1.845 2.818 4.121 2.818c2.273 0 4.12-1.261 4.12-2.818s-1.847-2.82-4.12-2.82m4.406 13.958c1.321 1.571 2.369 1.828 3.085 1.828 1.21 0 2.364-1.524 2.694-1.958 0.329-0.434 1.109-2.001 2.123-2.153 0.947-0.144 1.399 0.856 1.399 0.856s0.176-0.558 0.204-0.836c0.075-0.792-0.36-1.175-0.788-1.35-1.358-0.533-3.179 1.044-3.497 1.292-1.837 1.445-3.412 0.656-4.594-0.179-2.197-1.559-2.226-4.494-2.226-4.494l-0.857 0.235s-0.114 1.389 0.182 2.583c0.521 2.065 1.865 3.689 2.275 4.176m-7.544 0.427s0.398 1.661 1.103 2.898c0.845 1.487 2.035 2.858 2.035 2.858s1.192-1.371 2.036-2.858c0.703-1.237 1.101-2.898 1.101-2.898s-0.986-1.015-1.707-2.586c-1.04-2.265-0.756-4.511-0.756-4.511s-0.193 0.01-0.343 0.01c-0.154 0-0.331 0.01-0.331 0.01s-0.18-0.01-0.33-0.01c-0.152 0-0.347-0.01-0.347-0.01s0.282 2.246-0.754 4.511c-0.721 1.571-1.707 2.586-1.707 2.586m-10.771-2.69c0.025 0.278 0.199 0.836 0.199 0.836s0.454-1 1.403-0.856c1.009 0.152 1.792 1.719 2.121 2.153 0.332 0.434 1.485 1.958 2.694 1.958 0.715 0 1.765-0.257 3.085-1.828 0.41-0.489 1.756-2.111 2.275-4.176 0.298-1.194 0.184-2.583 0.184-2.583l-0.861-0.235s-0.025 2.935-2.226 4.494c-1.18 0.835-2.751 1.624-4.592 0.179-0.32-0.248-2.139-1.825-3.499-1.292-0.428 0.175-0.86 0.56-0.783 1.35m-1.954-25.531c-2.098 3.157-0.758 6.518 0.02 7.645 0.99 1.427 3.637 4.334 4.252 5.078 1.867 2.273 1.392 3.55 0.959 4.061-1.089 1.283-2.859 0.194-2.859 0.194s0.316 1.049 1.445 1.511c1.866 0.762 2.903-0.148 3.558-0.827 1.296-1.34 0.388-3.378-0.117-4.156-0.501-0.783-1.093-1.865-1.428-2.437-1.054-1.806-0.229-3.99 0.783-4.902 1.812-1.622 3.787-0.302 4.786 1.281 1.46 2.326 2.186 5.435 2.186 5.435s0.215-0.085 0.424-0.146c0.229-0.066 0.456-0.113 0.456-0.113s-0.404-1.942-0.761-3.355c-0.454-1.8-1.38-4.375-2.015-5.685-1.855-3.831-4.581-4.924-5.761-5.427-2.553-1.082-4.937 0.351-5.928 1.843m9.759-1.601c0.992 0.922 2.157 2.542 2.157 2.542s-0.515-1.75-0.752-3.254c-0.213-1.324-0.207-3.264-0.207-3.264s-0.535-0.642-1.761-1.176c-1.269-0.555-2.435-0.44-2.435-0.44s0.264 0.897 0.48 1.932c0.215 1.04 0.347 2.267 0.347 2.267s1.196 0.486 2.171 1.393m-46.884-26.411s0.399 1.66 1.101 2.901c0.845 1.482 2.035 2.852 2.035 2.852s1.192-1.37 2.038-2.852c0.705-1.241 1.102-2.901 1.102-2.901s-0.987-1.016-1.707-2.587c-1.039-2.265-0.756-4.511-0.756-4.511s-0.198 0.014-0.346 0.014c-0.152 0-0.331 6e-3 -0.331 6e-3s-0.174-6e-3 -0.328-6e-3c-0.15 0-0.343-0.014-0.343-0.014s0.28 2.246-0.756 4.511c-0.724 1.571-1.709 2.587-1.709 2.587m13.074-30.065c-1.182 0.501-3.911 1.596-5.766 5.429-0.634 1.308-1.557 3.881-2.013 5.683-0.355 1.413-0.762 3.355-0.762 3.355s0.227 0.047 0.46 0.113c0.209 0.063 0.424 0.146 0.424 0.146s0.726-3.109 2.185-5.433c0.998-1.587 2.974-2.907 4.78-1.281 1.018 0.912 1.841 3.094 0.789 4.9-0.334 0.572-0.926 1.658-1.431 2.437-0.501 0.778-1.411 2.816-0.114 4.156 0.655 0.679 1.691 1.587 3.556 0.825 1.127-0.461 1.446-1.511 1.446-1.511s-1.77 1.091-2.857-0.194c-0.434-0.511-0.91-1.782 0.957-4.055 0.614-0.75 3.264-3.655 4.253-5.08 0.781-1.127 2.121-4.488 0.017-7.649-0.992-1.49-3.372-2.923-5.924-1.841m-1.314-3.418c0.215-1.038 0.481-1.932 0.481-1.932s-1.166-0.115-2.439 0.438c-1.223 0.536-1.76 1.176-1.76 1.176s6e-3 1.942-0.205 3.266c-0.241 1.504-0.752 3.254-0.752 3.254s1.162-1.618 2.155-2.542c0.977-0.907 2.169-1.393 2.169-1.393s0.132-1.227 0.351-2.267m-4.504 21.917c0-1.557-1.841-2.82-4.12-2.82-2.272 0-4.117 1.263-4.117 2.82s1.845 2.818 4.117 2.818c2.279 0 4.12-1.261 4.12-2.818m9.791 8.875c0.077-0.792-0.355-1.175-0.782-1.346-1.361-0.539-3.183 1.038-3.499 1.286-1.837 1.447-3.416 0.658-4.594-0.177-2.202-1.561-2.226-4.494-2.226-4.494l-0.86 0.233s-0.115 1.391 0.183 2.585c0.519 2.063 1.867 3.687 2.272 4.176 1.322 1.571 2.374 1.83 3.086 1.83 1.214 0 2.366-1.526 2.696-1.962 0.331-0.434 1.111-2.001 2.123-2.151 0.949-0.144 1.399 0.856 1.399 0.856s0.174-0.558 0.202-0.836m-27.82 0c0.029 0.278 0.203 0.836 0.203 0.836s0.454-1 1.403-0.856c1.007 0.15 1.788 1.717 2.12 2.151 0.329 0.436 1.48 1.962 2.694 1.962 0.714 0 1.764-0.259 3.084-1.83 0.412-0.489 1.756-2.113 2.275-4.176 0.298-1.194 0.182-2.585 0.182-2.585l-0.86-0.233s-0.024 2.933-2.225 4.494c-1.18 0.835-2.754 1.624-4.594 0.177-0.317-0.248-2.137-1.825-3.495-1.286-0.428 0.171-0.864 0.554-0.787 1.346m3.974-27.374c-2.549-1.082-4.935 0.351-5.924 1.841-2.102 3.161-0.764 6.522 0.016 7.649 0.994 1.425 3.639 4.33 4.253 5.08 1.87 2.273 1.389 3.544 0.957 4.055-1.086 1.285-2.858 0.194-2.858 0.194s0.318 1.05 1.447 1.511c1.865 0.762 2.901-0.146 3.56-0.825 1.292-1.34 0.387-3.378-0.117-4.156-0.505-0.779-1.097-1.865-1.432-2.437-1.052-1.806-0.227-3.988 0.787-4.9 1.804-1.626 3.785-0.306 4.784 1.281 1.456 2.324 2.186 5.433 2.186 5.433s0.215-0.083 0.421-0.146c0.233-0.066 0.458-0.113 0.458-0.113s-0.407-1.942-0.764-3.355c-0.45-1.802-1.374-4.375-2.009-5.683-1.855-3.833-4.585-4.928-5.765-5.429m5.988 2.784s-0.511-1.75-0.752-3.254c-0.211-1.324-0.207-3.266-0.207-3.266s-0.535-0.64-1.757-1.176c-1.269-0.553-2.439-0.438-2.439-0.438s0.267 0.894 0.484 1.932c0.215 1.04 0.347 2.267 0.347 2.267s1.194 0.486 2.169 1.393c0.992 0.924 2.155 2.542 2.155 2.542m5.766 3.272c1.476-6.493 1.498-9.67 0.827-13.05-0.491-2.457-2.646-5.283-2.646-5.283s-2.153 2.826-2.641 5.283c-0.673 3.38-0.647 6.557 0.825 13.05 0.367 1.619 1.816 8.356 1.816 8.356s1.454-6.737 1.819-8.356m38.098-71.236c-2.553-1.082-4.937 0.349-5.928 1.839-2.098 3.156-0.758 6.52 0.02 7.645 0.99 1.431 3.637 4.334 4.252 5.08 1.867 2.274 1.392 3.548 0.959 4.058-1.089 1.284-2.859 0.195-2.859 0.195s0.316 1.048 1.445 1.51c1.866 0.763 2.903-0.148 3.558-0.825 1.296-1.342 0.388-3.379-0.117-4.158-0.501-0.78-1.093-1.865-1.428-2.434-1.054-1.811-0.229-3.992 0.783-4.902 1.812-1.624 3.787-0.304 4.786 1.283 1.46 2.321 2.186 5.431 2.186 5.431s0.215-0.085 0.424-0.146c0.229-0.069 0.456-0.113 0.456-0.113s-0.404-1.943-0.761-3.358c-0.454-1.8-1.38-4.37-2.015-5.68-1.855-3.833-4.581-4.926-5.761-5.425m14.967 27.133c-2.197-1.559-2.226-4.492-2.226-4.492l-0.857 0.233s-0.114 1.39 0.182 2.582c0.521 2.066 1.865 3.69 2.275 4.177 1.321 1.569 2.369 1.828 3.085 1.828 1.21 0 2.364-1.522 2.694-1.958 0.329-0.432 1.109-2.003 2.121-2.153 0.949-0.142 1.401 0.855 1.401 0.855s0.176-0.559 0.204-0.835c0.075-0.786-0.36-1.178-0.788-1.344-1.358-0.539-3.179 1.036-3.497 1.285-1.837 1.446-3.412 0.659-4.594-0.178m-5.032-5.816c2.273 0 4.12-1.263 4.12-2.82s-1.847-2.82-4.12-2.82c-2.276 0-4.121 1.263-4.121 2.82s1.845 2.82 4.121 2.82m3.137 8.745s-0.986-1.015-1.707-2.589c-1.04-2.264-0.756-4.506-0.756-4.506s-0.193 6e-3 -0.343 6e-3c-0.154 0-0.331 0.01-0.331 0.01s-0.18-0.01-0.33-0.01c-0.152 0-0.347-6e-3 -0.347-6e-3s0.282 2.242-0.754 4.506c-0.721 1.574-1.707 2.589-1.707 2.589s0.398 1.661 1.103 2.897c0.845 1.486 2.035 2.855 2.035 2.855s1.192-1.369 2.036-2.855c0.703-1.236 1.101-2.897 1.101-2.897m-7.544-0.427c0.41-0.489 1.756-2.113 2.275-4.179 0.298-1.192 0.184-2.582 0.184-2.582l-0.861-0.233s-0.025 2.933-2.226 4.492c-1.18 0.837-2.751 1.624-4.592 0.178-0.32-0.249-2.139-1.824-3.499-1.285-0.428 0.166-0.86 0.558-0.783 1.344 0.025 0.276 0.199 0.835 0.199 0.835s0.454-0.997 1.403-0.855c1.009 0.15 1.79 1.719 2.121 2.153 0.332 0.436 1.485 1.958 2.694 1.958 0.715 0 1.765-0.259 3.085-1.826m6.224-23.584c1.474-6.491 1.498-9.665 0.825-13.049-0.491-2.457-2.642-5.281-2.642-5.281s-2.155 2.824-2.643 5.281c-0.673 3.384-0.649 6.558 0.823 13.049 0.369 1.622 1.82 8.359 1.82 8.359s1.452-6.737 1.817-8.359m14.024 3.433c0.781-1.125 2.121-4.489 0.017-7.645-0.988-1.49-3.37-2.921-5.922-1.839-1.178 0.499-3.913 1.592-5.767 5.423-0.631 1.312-1.555 3.882-2.012 5.682-0.356 1.415-0.76 3.358-0.76 3.358s0.227 0.044 0.458 0.113c0.209 0.061 0.424 0.146 0.424 0.146s0.728-3.11 2.185-5.431c0.996-1.587 2.976-2.907 4.785-1.285 1.013 0.912 1.834 3.093 0.782 4.904-0.33 0.569-0.922 1.654-1.429 2.434-0.503 0.781-1.411 2.816-0.116 4.158 0.655 0.677 1.693 1.588 3.56 0.825 1.125-0.462 1.444-1.51 1.444-1.51s-1.772 1.089-2.859-0.195c-0.434-0.51-0.91-1.784 0.957-4.058 0.614-0.746 3.266-3.649 4.253-5.08m-5.7 44.812-10.139 17.714h-6e-3l-10.138-17.714h10.144zm40.997 66.034s-0.28 0.701-3.801 1.589c-3.795 0.963-5.024-3.061-5.342-3.979-1.385-3.98-4.077-4.387-6.36-5.21-2.284-0.815-9.096-2.683-10.28-3.021-3.572-1.016-3.223-2.041-2.891-2.595 0.629-1.04 3.216 0.136 4.9 0.685 2.646 0.854 4.414 1.158 5.794 0.992 2.597-0.315 2.964-3.315 2.285-5.37-0.543-1.645-17.191-47.706-17.191-47.706h4.614s1.707-6.874 2.799-9.753c2.768-7.31 5.411-10.055 6.299-10.629 4.284-2.777 5.565 0.01 5.814 0.766 0.876 2.666-0.764 4.067-0.764 4.067s0.742 0.304 1.486 0.327c1.299 0.044 2.348-0.594 3.238-1.553 2.321-2.492 0.218-5.663 0.218-5.663s3.131-0.508 4.46-4.81c1.634-5.293-4.066-9.163-4.066-9.163s0.245 0.365-0.179 2.931c-0.421 2.567-4.857 3.694-6.971 4.221-4.921 1.222-8.493 4.849-10.587 7.28-2.522 2.937-4.602 9.682-4.602 9.682h-40.024s-2.078-6.745-4.602-9.682c-2.094-2.431-5.666-6.058-10.588-7.28-2.108-0.527-6.544-1.654-6.972-4.221-0.423-2.566-0.176-2.931-0.176-2.931s-5.701 3.87-4.065 9.163c1.326 4.302 4.458 4.81 4.458 4.81s-2.098 3.171 0.219 5.663c0.89 0.959 1.938 1.597 3.236 1.553 0.746-0.023 1.488-0.327 1.488-0.327s-1.64-1.401-0.766-4.067c0.247-0.756 1.53-3.543 5.82-0.766 0.884 0.574 3.527 3.319 6.294 10.629 1.093 2.879 2.8 9.753 2.8 9.753h4.616s-16.652 46.061-17.193 47.706c-0.679 2.055-0.314 5.055 2.287 5.37 1.378 0.166 3.146-0.138 5.794-0.992 1.682-0.549 4.269-1.725 4.897-0.685 0.329 0.554 0.681 1.579-2.888 2.595-1.184 0.338-7.998 2.206-10.283 3.021-2.282 0.823-4.975 1.23-6.359 5.21-0.318 0.918-1.547 4.942-5.34 3.979-3.523-0.888-3.803-1.589-3.803-1.589s2.181 5.453 5.463 7.113c6.263 3.167 10.216-1.934 10.216-1.934s1.636 1.853 4.995 1.091c1.265-0.284 2.439-1.109 3.14-2.047 0.359-0.477 0.645-1.113 0.645-1.113s-3.455 0.06-4.138-1.657c-0.371-0.93-0.332-2.262 3.043-4.427 1.076-0.693 6.238-3.57 8.371-5.014 2.197-1.486 5.143-3.705 3.752-6.464-1.107-2.2-3.345-3.039-3.345-3.039l8.565-32.536 10.428 17.118h6e-3l10.427-17.118 8.565 32.536s-2.236 0.839-3.345 3.039c-1.387 2.759 1.559 4.978 3.754 6.464 2.133 1.444 7.292 4.321 8.371 5.014 3.375 2.165 3.412 3.497 3.041 4.427-0.682 1.717-4.134 1.657-4.134 1.657s0.286 0.636 0.643 1.113c0.701 0.938 1.877 1.763 3.142 2.047 3.353 0.762 4.993-1.091 4.993-1.091s3.953 5.101 10.215 1.934c3.283-1.66 5.464-7.113 5.464-7.113m0.529-49.094c1.474-6.493 1.498-9.67 0.825-13.05-0.491-2.457-2.643-5.283-2.643-5.283s-2.153 2.826-2.644 5.283c-0.671 3.38-0.649 6.557 0.825 13.05 0.369 1.619 1.819 8.356 1.819 8.356s1.453-6.737 1.818-8.356m7.284-11.406s-1.168-0.115-2.437 0.438c-1.222 0.536-1.757 1.176-1.757 1.176s4e-3 1.942-0.211 3.266c-0.235 1.504-0.748 3.254-0.748 3.254s1.161-1.618 2.153-2.542c0.977-0.907 2.171-1.395 2.171-1.395s0.132-1.225 0.348-2.265c0.217-1.038 0.481-1.932 0.481-1.932m6.741 14.84c0.78-1.127 2.118-4.488 0.018-7.649-0.992-1.49-3.373-2.923-5.924-1.841-1.184 0.501-3.908 1.596-5.765 5.429-0.633 1.308-1.559 3.881-2.013 5.683-0.355 1.413-0.763 3.355-0.763 3.355s0.227 0.047 0.458 0.113c0.211 0.063 0.424 0.146 0.424 0.146s0.728-3.109 2.186-5.433c0.997-1.587 2.978-2.907 4.784-1.281 1.013 0.912 1.837 3.094 0.782 4.9-0.33 0.572-0.926 1.658-1.425 2.437-0.505 0.778-1.415 2.816-0.115 4.156 0.652 0.679 1.69 1.587 3.555 0.825 1.128-0.461 1.442-1.511 1.442-1.511s-1.768 1.091-2.855-0.194c-0.433-0.511-0.908-1.782 0.959-4.055 0.613-0.75 3.262-3.655 4.252-5.08m8.287-100.01h-73.993v4e-3h-73.968c-5.312 0-9.618 4.305-9.618 9.617v150.15c0 21.315 17.281 38.595 38.595 38.595h27.046c3.623 0 7.029 1.004 9.601 2.595 1.985 1.17 3.732 2.698 5.147 4.501 0.815 1.036 2.032 1.544 3.222 1.51v-4e-3c1.184 0.026 2.39-0.482 3.197-1.51 1.417-1.803 3.162-3.331 5.149-4.499 2.57-1.593 5.976-2.597 9.599-2.597h27.047c21.315 0 38.595-17.28 38.595-38.595v-150.15c0-5.314-4.306-9.619-9.619-9.619m2.279 159.77c0 17.234-14.023 31.255-31.255 31.255h-27.047c-7.434 0-14.082 2.963-17.96 7.415-3.878-4.45-10.523-7.411-17.955-7.411h-27.046c-17.233 0-31.254-14.021-31.254-31.255v-150.15c0-1.257 1.022-2.279 2.277-2.279h73.993v-2e-3h73.968c1.255 0 2.279 1.022 2.279 2.277zm116.56-136.97h-8.681c1.103-0.239 2.175-0.549 3.195-0.991 2.23-0.961 4.214-2.285 5.942-3.959 1.723-1.675 3.067-3.658 4.036-5.942 0.961-2.279 1.445-4.696 1.445-7.23 0-2.641-0.484-5.082-1.445-7.314-0.969-2.23-2.313-4.19-4.036-5.865-1.728-1.672-3.712-2.998-5.942-3.959-2.236-0.967-4.673-1.449-7.31-1.449-2.543 0-4.951 0.482-7.238 1.449-2.284 0.961-4.265 2.287-5.942 3.959-1.674 1.675-2.994 3.635-3.959 5.865-0.965 2.232-1.449 4.673-1.449 7.314 0 2.534 0.484 4.951 1.449 7.23 0.965 2.284 2.285 4.267 3.959 5.942 1.677 1.674 3.658 2.998 5.942 3.959 1.042 0.442 2.119 0.752 3.211 0.991h-7.703l-41.131 108.76h24.07l8.53-24.219h40.671l8.225 24.219h24.831zm-22.398-18.122c0-2.943 0.864-5.461 2.593-7.545 1.724-2.078 4.061-3.122 7.009-3.122 2.943 0 5.303 1.044 7.081 3.122 1.774 2.084 2.666 4.602 2.666 7.545 0 2.944-0.892 5.456-2.666 7.54-1.778 2.082-4.138 3.122-7.081 3.122-2.948 0-5.285-1.04-7.009-3.122-1.729-2.084-2.593-4.596-2.593-7.54m-4.415 84.993 14.169-40.063h0.304l13.71 40.063zm129.39-66.871c5.179 0 9.903 0.458 14.166 1.372 4.265 0.915 7.923 2.417 10.968 4.493 3.049 2.086 5.408 4.851 7.085 8.306 1.674 3.448 2.514 7.717 2.514 12.792 0 5.485-1.247 10.057-3.735 13.714-2.487 3.649-6.166 6.647-11.044 8.987 6.706 1.93 11.703 5.307 15.008 10.126 3.296 4.827 4.95 10.637 4.95 17.44 0 5.486-1.068 10.236-3.199 14.24-2.134 4.014-5.005 7.292-8.607 9.832-3.607 2.534-7.718 4.417-12.34 5.634-4.62 1.216-9.366 1.828-14.244 1.828h-52.702v-108.76zm-3.045 44.024c4.265 0 7.766-1.016 10.509-3.045 2.743-2.031 4.115-5.332 4.115-9.903 0-2.532-0.458-4.616-1.372-6.244-0.914-1.626-2.133-2.897-3.655-3.811-1.523-0.915-3.274-1.543-5.259-1.9-1.979-0.355-4.036-0.533-6.167-0.533h-22.391v25.436zm1.372 46.152c2.332 0 4.566-0.225 6.702-0.681 2.131-0.458 4.01-1.216 5.636-2.286 1.624-1.069 2.917-2.51 3.88-4.339 0.965-1.828 1.45-4.168 1.45-7.01 0-5.579-1.577-9.569-4.722-11.955-3.15-2.388-7.31-3.58-12.49-3.58h-26.048v29.851zm54.657-57.959c2.437-6.951 5.938-13.025 10.509-18.2 4.572-5.176 10.181-9.245 16.833-12.188 6.651-2.944 14.14-4.416 22.468-4.416 8.429 0 15.946 1.472 22.547 4.416 6.6 2.943 12.188 7.012 16.757 12.188 4.563 5.175 8.073 11.249 10.507 18.2 2.439 6.956 3.657 14.503 3.657 22.622 0 7.919-1.218 15.31-3.657 22.166-2.434 6.85-5.944 12.823-10.507 17.899-4.569 5.074-10.157 9.064-16.757 11.955-6.601 2.897-14.118 4.344-22.547 4.344-8.328 0-15.817-1.447-22.468-4.344-6.652-2.891-12.261-6.881-16.833-11.955-4.571-5.076-8.072-11.049-10.509-17.899-2.437-6.856-3.657-14.247-3.657-22.166 0-8.119 1.22-15.666 3.657-22.622m21.86 35.947c1.066 4.325 2.765 8.207 5.102 11.653 2.336 3.457 5.381 6.224 9.139 8.306 3.757 2.086 8.324 3.124 13.709 3.124 5.384 0 9.949-1.038 13.714-3.124 3.75-2.082 6.803-4.849 9.135-8.306 2.339-3.446 4.036-7.328 5.106-11.653 1.061-4.314 1.596-8.753 1.596-13.325 0-4.772-0.535-9.39-1.596-13.86-1.07-4.47-2.767-8.454-5.106-11.955-2.332-3.511-5.385-6.3-9.135-8.382-3.765-2.078-8.33-3.124-13.714-3.124-5.385 0-9.952 1.046-13.709 3.124-3.758 2.082-6.803 4.871-9.139 8.382-2.337 3.501-4.036 7.485-5.102 11.955-1.068 4.47-1.6 9.088-1.6 13.86 0 4.572 0.532 9.011 1.6 13.325" fill="#231f20"/></svg>
